<svg width="26" height="27" xmlns="http://www.w3.org/2000/svg" xmlns:xlink="http://www.w3.org/1999/xlink" overflow="hidden"><defs><clipPath id="clip0"><rect x="326" y="183" width="26" height="27"/></clipPath><clipPath id="clip1"><rect x="327" y="184" width="25" height="25"/></clipPath><clipPath id="clip2"><rect x="327" y="184" width="25" height="25"/></clipPath><clipPath id="clip3"><rect x="327" y="184" width="25" height="32"/></clipPath></defs><g clip-path="url(#clip0)" transform="translate(-326 -183)"><g clip-path="url(#clip1)"><g clip-path="url(#clip2)"><g clip-path="url(#clip3)"><path d="M8.57033 14.3748C8.48623 14.1919 8.26672 14.1115 8.08383 14.1956L2.91159 16.6134C2.72869 16.7012 2.65187 16.917 2.736 17.0999L4.26135 20.3628C4.31985 20.4908 4.39668 20.6115 4.48449 20.7212 4.79904 20.5639 5.14654 20.4615 5.51236 20.425 5.83789 19.8909 6.32076 19.4812 6.88772 19.2398L6.71214 18.863C6.628 18.6802 6.70483 18.4643 6.88772 18.3765 7.07061 18.2924 7.29008 18.3729 7.37422 18.5558L7.601 19.0423C7.75099 19.0167 7.90461 19.0057 8.0619 19.0057 8.21189 19.0057 8.35817 19.0167 8.50452 19.0386 8.82641 18.3619 9.36774 17.8132 10.0262 17.4804L8.57033 14.3748Z" fill="#FFFFFF" transform="matrix(1.00346 0 0 1 327.036 184)"/><path d="M5.12829 11.8106 3.03961 12.7872 1.00948 8.44536C0.738805 7.87105 0.987538 7.18337 1.56549 6.91271 1.72278 6.83951 1.89103 6.80301 2.05563 6.80301 2.48726 6.80301 2.90427 7.04804 3.09815 7.46869L5.12829 11.8106Z" fill="#FFFFFF" transform="matrix(1.00346 0 0 1 327.036 184)"/><path d="M3.65762 12.8736 5.96477 12.8736 5.96477 14.8287 3.65762 14.8287Z" fill="#FFFFFF" transform="matrix(0.908421 -0.423338 0.424802 0.90529 321.607 187.34)"/><path d="M23.725 9.16231C23.2714 9.01233 22.3716 8.36853 20.8499 8.54048 17.9711 8.84042 17.181 11.507 17.1371 11.5729 16.0105 12.1435 15.1143 12.8458 14.5546 13.3396 14.6022 11.6351 14.818 9.83902 15.3411 8.25883 16.0727 8.35028 17.2908 8.21488 18.2455 7.81255 20.7548 6.74807 21.6656 3.8547 21.1498 1.41488 21.1425 1.37831 21.1279 1.34174 21.1096 1.30883 21.0035 1.12594 20.8206 1.12228 20.6085 1.10397 15.3704 0.705225 13.0147 4.27168 14.6717 7.92229 14.3096 8.97211 14.0828 10.1024 13.9511 11.2436 13.6914 10.9145 13.3256 10.5304 12.8281 10.1134 12.8245 10.0768 12.7696 9.6927 12.7696 9.6927 12.766 9.67805 12.7623 9.66707 12.7623 9.64882 12.4294 7.39186 10.5456 5.72754 8.34722 5.59588 8.02532 5.57756 6.628 5.62145 6.45609 5.86288 6.45609 5.86655 6.45242 5.86655 6.45242 5.87022 6.30977 6.06409 6.45609 7.66253 7.16573 8.78555 8.00703 10.1207 9.4885 10.9803 11.1236 10.9803 11.5918 10.9803 11.8771 10.9108 12.5355 10.8303L12.5355 10.8267 12.5538 10.8267 12.5355 10.8303C13.4427 11.6241 13.7572 12.2422 13.8414 12.4471 13.6402 15.6807 14.0974 18.7423 14.2767 19.8031 14.2291 19.8177 14.1815 19.8287 14.1377 19.8434 13.8487 18.6838 12.8025 17.8352 11.5588 17.8352 10.2932 17.8352 9.22878 18.7313 8.96905 19.9238 8.68373 19.7995 8.37649 19.7373 8.0619 19.7373 7.12184 19.7373 6.30243 20.3006 5.96959 21.1456 4.66004 21.0578 3.55538 22.1039 3.55538 23.4025 3.55538 23.6037 3.71634 23.7683 3.92116 23.7683L18.966 23.7683C19.1709 23.7683 19.3319 23.6037 19.3319 23.4025 19.3319 22.1075 18.2455 21.0541 16.925 21.1456 16.6104 20.3555 15.8752 19.8141 15.0119 19.7446 14.8839 18.9838 14.5656 16.8402 14.5437 14.3565 14.8509 14.0456 15.8568 13.0909 17.2761 12.3337 17.8577 12.5678 18.4722 12.9336 19.5769 12.9336 21.2998 12.9336 22.9312 11.9241 23.6445 10.2597 23.9225 9.59758 23.9298 9.6342 23.9408 9.52443 23.9518 9.3708 23.842 9.20984 23.725 9.16231ZM18.0662 3.6096C18.4942 3.39015 18.8344 4.03028 18.4028 4.26074 17.0859 4.94107 16.2007 6.12623 15.6081 7.54916 15.4838 7.54552 15.3741 7.53458 15.2899 7.52723 15.2021 7.31871 15.1326 7.1212 15.0778 6.92729 15.7289 5.51542 16.6799 4.32658 18.0662 3.6096ZM11.7344 10.2011C11.087 9.74022 10.253 9.25009 9.17024 8.75992 8.7386 8.56241 9.02759 7.89305 9.47384 8.09052 10.5054 8.55877 11.3248 9.03058 11.9868 9.48418 12.06 9.82436 12.038 9.7768 12.0929 10.1499L11.7344 10.2011ZM18.1577 11.913C18.0699 11.8838 17.9857 11.8435 17.8431 11.7813 18.0224 11.3753 17.9821 11.4375 18.1394 11.1302 18.8856 10.8486 19.705 10.6401 20.5792 10.5889 20.7804 10.5815 20.9523 10.7279 20.967 10.9291 21.0035 11.5802 20.2573 11.0424 18.1577 11.913Z" fill="#FFFFFF" transform="matrix(1.00346 0 0 1 327.036 184)"/><text fill="#FFFFFF" font-family="Arial,Arial_MSFontService,sans-serif" font-weight="700" font-size="5" transform="matrix(0.361269 0 0 0.360024 327.036 214)">Created by Vectors Point</text><text fill="#FFFFFF" font-family="Arial,Arial_MSFontService,sans-serif" font-weight="700" font-size="5" transform="matrix(0.361269 0 0 0.360024 327.036 216)">from the Noun Project</text></g></g></g></g></svg>