<svg width="29" height="29" xmlns="http://www.w3.org/2000/svg" xmlns:xlink="http://www.w3.org/1999/xlink" overflow="hidden"><defs><clipPath id="clip0"><rect x="324" y="251" width="29" height="29"/></clipPath><clipPath id="clip1"><rect x="325" y="251" width="27" height="28"/></clipPath><clipPath id="clip2"><rect x="325" y="251" width="27" height="28"/></clipPath><clipPath id="clip3"><rect x="325" y="251" width="27" height="34"/></clipPath></defs><g clip-path="url(#clip0)" transform="translate(-324 -251)"><g clip-path="url(#clip1)"><g clip-path="url(#clip2)"><g clip-path="url(#clip3)"><path d="M24.9591 3.95724 19.056 3.95724 19.056 3.08256C19.056 2.07302 18.2353 1.25229 17.2257 1.25229L9.74667 1.25229C8.73709 1.25229 7.9164 2.07302 7.9164 3.08256L7.9164 3.95724 2.01329 3.95724C1.85534 3.95724 1.7243 4.08824 1.7243 4.25008 1.7243 4.4081 1.85534 4.53522 2.01329 4.53522L3.4891 4.53522 3.90903 6.72387 23.0633 6.72387 23.4833 4.53522 24.9591 4.53522C25.1209 4.53522 25.2481 4.4081 25.2481 4.25008 25.2481 4.08824 25.1209 3.95724 24.9591 3.95724ZM18.478 3.95724 8.49438 3.95724 8.49438 3.08256C8.49438 2.39287 9.05695 1.83027 9.74667 1.83027L17.2257 1.83027C17.9193 1.83027 18.478 2.39287 18.478 3.08256L18.478 3.95724Z" fill="#FFFFFF" transform="matrix(1.00102 0 0 1 325 251.096)"/><path d="M20.0501 22.3794 19.6879 24.2713C19.4991 25.1268 18.767 25.7201 17.8962 25.7201L9.07621 25.7201C8.2208 25.7201 7.46943 25.1152 7.28829 24.279L6.92227 22.3794 20.0501 22.3794Z" fill="#FFFFFF" transform="matrix(1.00102 0 0 1 325 251.096)"/><path d="M4.02116 7.30023 6.81165 21.8021 20.1628 21.8021 22.9515 7.30023 4.02116 7.30023ZM13.1144 19.0001C12.8523 19.0618 12.5787 19.0964 12.2974 19.0964 10.5289 19.0964 9.06465 17.7787 8.85273 16.0486L8.60231 16.0486C8.49438 16.0486 8.3942 15.9831 8.34407 15.8867 8.29401 15.7866 8.30946 15.6671 8.37878 15.5824L9.63493 13.9833C9.68883 13.9139 9.77364 13.8715 9.86226 13.8715 9.95093 13.8715 10.0357 13.9139 10.0896 13.9833L11.3457 15.5824C11.4113 15.6671 11.4266 15.7866 11.3766 15.8867 11.3303 15.9831 11.2263 16.0486 11.1184 16.0486L10.9296 16.0486C11.0992 17.2007 11.9623 18.1601 13.1105 18.4376 13.2415 18.4684 13.334 18.584 13.334 18.715 13.334 18.8499 13.2415 18.9655 13.1144 19.0001ZM13.6885 11.7869C13.6268 11.6983 13.623 11.5788 13.6769 11.4825L13.7694 11.3168C12.6866 10.8891 11.4228 11.1551 10.6098 12.0143 10.5558 12.0759 10.4788 12.1068 10.4017 12.1068 10.3516 12.1068 10.3015 12.0913 10.2591 12.0682 10.1436 12.0027 10.0857 11.864 10.1243 11.7369 10.1975 11.4787 10.3092 11.2244 10.448 10.9816 11.3341 9.44805 13.2068 8.83928 14.8097 9.5213L14.9331 9.30548C14.9908 9.20915 15.0872 9.15906 15.2028 9.16291 15.3145 9.17058 15.4109 9.23997 15.4533 9.34401L16.2046 11.2321C16.2393 11.313 16.2316 11.4055 16.1892 11.4825 16.1429 11.5596 16.0659 11.6097 15.9773 11.6251L13.9698 11.9102C13.858 11.9257 13.7501 11.8794 13.6885 11.7869ZM17.2758 17.1737 17.4029 17.3856C17.457 17.482 17.4531 17.6015 17.3914 17.6939 17.3375 17.7748 17.245 17.821 17.1525 17.821 17.1371 17.821 17.1255 17.821 17.1101 17.8172L15.0987 17.5282C15.0101 17.5128 14.9331 17.4627 14.8907 17.3856 14.8445 17.3086 14.8367 17.2161 14.8714 17.1352L15.6267 15.2471C15.669 15.143 15.7653 15.0737 15.8732 15.066 15.9811 15.0583 16.089 15.1161 16.1468 15.2124L16.2393 15.3743C17.1525 14.6499 17.5533 13.4245 17.218 12.2879 17.1795 12.1607 17.2334 12.022 17.349 11.9565 17.4647 11.891 17.611 11.9102 17.7035 12.0066 17.8884 12.2031 18.0542 12.4227 18.1929 12.6655 19.0791 14.199 18.6707 16.1256 17.2758 17.1737Z" fill="#FFFFFF" transform="matrix(1.00102 0 0 1 325 251.096)"/><text fill="#FFFFFF" font-family="Arial,Arial_MSFontService,sans-serif" font-weight="700" font-size="5" transform="matrix(0.385714 0 0 0.38532 325 284)">Created by Vectors Point</text><text fill="#FFFFFF" font-family="Arial,Arial_MSFontService,sans-serif" font-weight="700" font-size="5" transform="matrix(0.385714 0 0 0.38532 325 286)">from the Noun Project</text></g></g></g></g></svg>