<svg width="36" height="34" xmlns="http://www.w3.org/2000/svg" xmlns:xlink="http://www.w3.org/1999/xlink" overflow="hidden"><defs><clipPath id="clip0"><rect x="43" y="371" width="36" height="34"/></clipPath><clipPath id="clip1"><rect x="44" y="371" width="34" height="33"/></clipPath><clipPath id="clip2"><rect x="44" y="371" width="34" height="33"/></clipPath></defs><g clip-path="url(#clip0)" transform="translate(-43 -371)"><g clip-path="url(#clip1)"><g clip-path="url(#clip2)"><g><path d="M23.3467 10.8044C23.3089 10.8044 23.2711 10.8044 23.2333 10.8044 22.9311 10.8044 22.6289 10.6911 22.3644 10.4644 22.1 10.2378 21.9489 9.86 21.9489 9.52L21.9489 8.84 21.9489 5.55333 11.5978 5.55333C11.4467 5.55333 11.3333 5.66667 11.3333 5.81778L11.3333 6.19556 11.3333 8.76445 11.3333 24.5178C11.3333 24.6689 11.4467 24.7822 11.5978 24.7822L23.1578 24.7822 26.5578 24.7822C26.7089 24.7822 26.8222 24.6689 26.8222 24.5178L26.8222 10.4267 23.3467 10.8044Z" fill="#FFFFFF" transform="matrix(1 0 0 -1.01983 44 403.904)"/><path d="M11.5978 25.7644C10.88 25.7644 10.3133 25.1978 10.3133 24.48L10.3133 8.72667 10.3133 7.17778 9.40667 7.17778C9.25556 7.17778 9.14222 7.29111 9.14222 7.44222L9.14222 26.1044C9.14222 26.2556 9.25556 26.3689 9.40667 26.3689L24.4044 26.3689C24.5556 26.3689 24.6689 26.2556 24.6689 26.1044L24.6689 25.7267 23.1578 25.7267 11.5978 25.7267Z" fill="#FFFFFF" transform="matrix(1 0 0 -1.01983 44 403.904)"/><path d="M8.12222 26.1422 8.12222 9.25556 7.40444 9.25556C7.25333 9.25556 7.14 9.36889 7.14 9.52L7.14 28.1822C7.14 28.3333 7.25333 28.4467 7.40444 28.4467L22.4022 28.4467C22.5533 28.4467 22.6667 28.3333 22.6667 28.1822L22.6667 27.4267 9.40667 27.4267C8.68889 27.4267 8.12222 26.86 8.12222 26.1422Z" fill="#FFFFFF" transform="matrix(1 0 0 -1.01983 44 403.904)"/><path d="M22.9311 9.52C22.9311 9.63333 23.0067 9.70889 23.0067 9.70889 23.0444 9.74667 23.12 9.78444 23.2333 9.78444L26.2556 9.48222 22.9311 6.15778 22.9311 8.80222 22.9311 9.52Z" fill="#FFFFFF" transform="matrix(1 0 0 -1.01983 44 403.904)"/><text fill="#FFFFFF" font-family="Arial,Arial_MSFontService,sans-serif" font-weight="700" font-size="5" transform="matrix(0.377778 0 0 -0.385271 44 363)">Created by Yoteyo</text><text fill="#FFFFFF" font-family="Arial,Arial_MSFontService,sans-serif" font-weight="700" font-size="5" transform="matrix(0.377778 0 0 -0.385271 44 362)">from the Noun Project</text></g></g></g></g></svg>