<svg width="30" height="27" xmlns="http://www.w3.org/2000/svg" xmlns:xlink="http://www.w3.org/1999/xlink" overflow="hidden"><defs><clipPath id="clip0"><rect x="44" y="433" width="30" height="27"/></clipPath><clipPath id="clip1"><rect x="45" y="433" width="28" height="27"/></clipPath><clipPath id="clip2"><rect x="45" y="433" width="28" height="27"/></clipPath></defs><g clip-path="url(#clip0)" transform="translate(-44 -433)"><g clip-path="url(#clip1)"><g clip-path="url(#clip2)"><g><path d="M3.64 10.64 3.78 11.76 2.24 11.76C1.932 11.76 1.68 11.508 1.68 11.2 1.68 10.892 1.932 10.64 2.24 10.64L3.64 10.64ZM25.76 10.64 24.36 10.64 24.22 11.76 25.76 11.76C26.068 11.76 26.32 11.508 26.32 11.2 26.32 10.892 26.068 10.64 25.76 10.64ZM3.64 7.84 9.52 7.84 9.52 6.16 3.64 6.16C3.164 6.16 2.8 6.524 2.8 7 2.8 7.448 3.164 7.84 3.64 7.84ZM17.36 7.84 17.36 6.16 10.64 6.16 10.64 7.84 17.36 7.84ZM18.48 7.84 24.36 7.84C24.836 7.84 25.2 7.448 25.2 7 25.2 6.524 24.836 6.16 24.36 6.16L18.48 6.16 18.48 7.84ZM22.876 4.06C22.68 3.64 22.288 3.36 21.812 3.36L6.188 3.36C5.74 3.36 5.32 3.64 5.152 4.06L4.76 5.04 23.24 5.04 22.876 4.06ZM5.964 20.3C6.02 20.86 6.524 21.28 7.084 21.28L20.916 21.28C21.476 21.28 21.952 20.86 22.036 20.3L23.436 8.96 4.564 8.96 5.964 20.3ZM9.52 22.4C8.904 22.4 8.4 22.904 8.4 23.52 8.4 24.136 8.904 24.64 9.52 24.64 10.136 24.64 10.64 24.136 10.64 23.52 10.64 22.904 10.136 22.4 9.52 22.4ZM18.48 22.4C17.864 22.4 17.36 22.904 17.36 23.52 17.36 24.136 17.864 24.64 18.48 24.64 19.096 24.64 19.6 24.136 19.6 23.52 19.6 22.904 19.096 22.4 18.48 22.4Z" fill="#FFFFFF" transform="matrix(1 0 0 1.04416 45 433)"/><text fill="#FFFFFF" font-family="Arial,Arial_MSFontService,sans-serif" font-weight="700" font-size="5" transform="matrix(0.28 0 0 0.292366 45 467)">Created by IconMark</text><text fill="#FFFFFF" font-family="Arial,Arial_MSFontService,sans-serif" font-weight="700" font-size="5" transform="matrix(0.28 0 0 0.292366 45 468)">from the Noun Project</text></g></g></g></g></svg>