<svg width="34" height="32" xmlns="http://www.w3.org/2000/svg" xmlns:xlink="http://www.w3.org/1999/xlink" overflow="hidden"><defs><clipPath id="clip0"><rect x="322" y="312" width="34" height="32"/></clipPath><clipPath id="clip1"><rect x="323" y="313" width="32" height="30"/></clipPath><clipPath id="clip2"><rect x="323" y="313" width="32" height="30"/></clipPath></defs><g clip-path="url(#clip0)" transform="translate(-322 -312)"><g clip-path="url(#clip1)"><g clip-path="url(#clip2)"><g><path d="M13.0644 2.72566 16.9179 9.39883 21.8053 6.76715 19.7375 3.1956C19.7375 3.1956 17.9518 1.03387 13.0644 2.72566ZM29.4183 19.9255 25.1889 12.0305 23.4971 14.9441 20.0195 14.9441 22.8391 19.8315 29.4183 19.9255ZM29.1364 21.4293 21.4293 21.4293 21.2413 26.9746 25.3768 26.8806C25.3768 26.8806 28.1965 26.4107 29.1364 21.4293ZM20.1135 19.1736 15.2261 24.061 19.9255 29.2303C20.1135 25.8468 20.1135 22.7452 20.1135 19.1736ZM6.10924 26.9746 15.0381 27.1626 13.3463 24.249 15.1321 21.2413 9.49281 21.2413 6.10924 26.9746ZM4.98138 25.9408 8.8349 19.2676 4.04149 16.354 2.06774 19.9255C2.06774 19.9255 1.03387 22.6512 4.98138 25.9408ZM11.3726 19.2676 9.5868 12.5944 2.72566 14.0042C5.6393 15.884 8.27097 17.4818 11.3726 19.2676ZM11.6545 3.1956 6.95513 10.9026 10.3387 10.9026 12.0305 13.9103 14.8501 9.02287 11.6545 3.1956ZM15.696 11.6545 22.3692 13.4403 24.5309 6.76715C21.4293 8.36495 18.7037 9.86877 15.696 11.6545Z" fill="#FFFFFF" fill-rule="evenodd" transform="matrix(1.02181 0 0 1 323.01 313)"/><text fill="#FFFFFF" font-family="Arial,Arial_MSFontService,sans-serif" font-weight="700" font-size="5" transform="matrix(0.0960384 0 0 0.0939883 323.01 346)">Created by emka angelina</text><text fill="#FFFFFF" font-family="Arial,Arial_MSFontService,sans-serif" font-weight="700" font-size="5" transform="matrix(0.0960384 0 0 0.0939883 323.01 346)">from the Noun Project</text></g></g></g></g></svg>