<svg width="24" height="25" xmlns="http://www.w3.org/2000/svg" xmlns:xlink="http://www.w3.org/1999/xlink" overflow="hidden"><defs><clipPath id="clip0"><rect x="48" y="123" width="24" height="25"/></clipPath><clipPath id="clip1"><rect x="48" y="124" width="24" height="23"/></clipPath><clipPath id="clip2"><rect x="48" y="124" width="24" height="23"/></clipPath></defs><g clip-path="url(#clip0)" transform="translate(-48 -123)"><g clip-path="url(#clip1)"><g clip-path="url(#clip2)"><g><path d="M-89.5745 129.632-99.7436 129.632C-100.156 128.533-101.209 127.731-102.446 127.731-103.683 127.731-104.759 128.533-105.149 129.632L-111.516 129.632C-111.997 129.632-111.997 129.632-111.997 130.594-111.997 131.556-111.997 131.556-111.516 131.556L-105.149 131.556C-104.736 132.656-103.683 133.457-102.446 133.457-101.209 133.457-100.133 132.656-99.7436 131.556L-89.5745 131.556C-89.0936 131.556-89.0936 131.556-89.0936 130.594-89.0936 129.632-89.0936 129.632-89.5745 129.632ZM-89.5745 122.945-92.1168 122.945C-92.5291 121.845-93.5826 121.044-94.8194 121.044-96.0562 121.044-97.1326 121.845-97.522 122.945L-111.516 122.945C-111.997 122.945-111.997 122.945-111.997 123.906-111.997 124.868-111.997 124.868-111.516 124.868L-97.522 124.868C-97.1097 125.968-96.0562 126.769-94.8194 126.769-93.5826 126.769-92.5062 125.968-92.1168 124.868L-89.5745 124.868C-89.0936 124.868-89.0936 124.868-89.0936 123.906-89.0936 122.945-89.0936 122.945-89.5745 122.945ZM-111.516 118.181-108.974 118.181C-108.561 119.28-107.508 120.082-106.271 120.082-105.034 120.082-103.958 119.28-103.568 118.181L-89.5745 118.181C-89.0936 118.181-89.0936 118.181-89.0936 117.219-89.0936 116.257-89.0936 116.257-89.5745 116.257L-103.568 116.257C-103.981 115.157-105.034 114.356-106.271 114.356-107.508 114.356-108.584 115.157-108.974 116.257L-111.516 116.257C-111.997 116.257-111.997 116.257-111.997 117.219-111.997 118.181-111.997 118.181-111.516 118.181Z" fill="#FFFFFF" transform="matrix(1.04789 0 0 1 165.36 11.5451)"/><text fill="#FFFFFF" font-family="Arial,Arial_MSFontService,sans-serif" font-weight="700" font-size="5" transform="matrix(0.24 0 0 0.229032 48 150)">Created by Wolf Böse</text><text fill="#FFFFFF" font-family="Arial,Arial_MSFontService,sans-serif" font-weight="700" font-size="5" transform="matrix(0.24 0 0 0.229032 48 151)">from the Noun Project</text></g></g></g></g></svg>