<svg width="31" height="19" xmlns="http://www.w3.org/2000/svg" xmlns:xlink="http://www.w3.org/1999/xlink" overflow="hidden"><defs><clipPath id="clip0"><rect x="45" y="187" width="31" height="19"/></clipPath><clipPath id="clip1"><rect x="46" y="188" width="29" height="17"/></clipPath><clipPath id="clip2"><rect x="46" y="188" width="29" height="17"/></clipPath></defs><g clip-path="url(#clip0)" transform="translate(-45 -187)"><g clip-path="url(#clip1)"><g clip-path="url(#clip2)"><g><path d="M12.1473 1.29819 27.5401 2.31819 28.931 5.47092 26.7055 9.64366 12.24 9.55094 10.5709 1.29819 9.18003 1.29819 9.18003 0 12.1473 0 12.1473 1.29819ZM19.6582 11.9619C20.9564 11.9619 21.9764 12.9819 21.9764 14.28 21.9764 15.5782 20.9564 16.5982 19.6582 16.5982 18.3601 16.5982 17.34 15.5782 17.34 14.28 17.34 12.9819 18.3601 11.9619 19.6582 11.9619ZM19.6582 13.1673C19.0091 13.1673 18.5455 13.6309 18.5455 14.28 18.5455 14.9291 19.0091 15.3928 19.6582 15.3928 20.3073 15.3928 20.771 14.9291 20.771 14.28 20.771 13.6309 20.3073 13.1673 19.6582 13.1673ZM6.86184 15.3928C7.4182 15.3928 7.97457 14.9291 7.97457 14.28 7.97457 13.6309 7.4182 13.1673 6.86184 13.1673 6.21275 13.1673 5.65638 13.6309 5.65638 14.28 5.65638 14.9291 6.21275 15.3928 6.86184 15.3928ZM6.86184 11.9619C8.0673 11.9619 9.0873 12.9819 9.0873 14.28 9.0873 15.5782 8.0673 16.5982 6.86184 16.5982 5.56365 16.5982 4.54365 15.5782 4.54365 14.28 4.54365 12.9819 5.56365 11.9619 6.86184 11.9619ZM24.9437 10.5709 11.4982 10.5709 9.82912 2.59637 5.74911 2.59637 1.02 7.88184 1.02 10.5709 0.927275 10.5709 0.927275 12.6109 0 12.6109 0 13.7237 0.927275 13.7237 2.41092 13.7237 3.98728 13.7237C4.26547 12.4255 5.3782 11.4055 6.86184 11.4055 8.25275 11.4055 9.36548 12.4255 9.64366 13.7237L16.8764 13.7237C17.0619 12.4255 18.2673 11.4055 19.6582 11.4055 21.0492 11.4055 22.2546 12.4255 22.4401 13.7237L24.9437 13.7237 24.9437 10.5709ZM4.26547 9.55094 2.04001 9.55094 2.04001 8.34548 6.21275 3.61637 8.99457 3.61637 9.82912 7.78911 6.49093 7.78911C5.47092 7.78911 4.54365 8.53093 4.26547 9.55094ZM23.3673 2.87455 24.5728 8.71639 26.1492 8.71639 27.3546 6.58366 26.7055 3.06001 23.3673 2.87455ZM12.24 2.13273 13.5382 8.71639 16.7837 8.71639 15.4855 2.31819 12.24 2.13273ZM17.8037 2.50364 19.1019 8.71639 22.3473 8.71639 21.0492 2.6891 17.8037 2.50364Z" fill="#FFFFFF" fill-rule="evenodd" transform="matrix(1.00239 0 0 1 46 188.012)"/><text fill="#FFFFFF" font-family="Arial,Arial_MSFontService,sans-serif" font-weight="700" font-size="5" transform="matrix(0.0929487 0 0 0.0927275 46 206)">Created by Leona Grande</text><text fill="#FFFFFF" font-family="Arial,Arial_MSFontService,sans-serif" font-weight="700" font-size="5" transform="matrix(0.0929487 0 0 0.0927275 46 206)">from the Noun Project</text></g></g></g></g></svg>