<svg width="31" height="32" xmlns="http://www.w3.org/2000/svg" xmlns:xlink="http://www.w3.org/1999/xlink" overflow="hidden"><defs><clipPath id="clip0"><rect x="322" y="121" width="31" height="32"/></clipPath><clipPath id="clip1"><rect x="323" y="121" width="29" height="31"/></clipPath><clipPath id="clip2"><rect x="323" y="121" width="29" height="31"/></clipPath><clipPath id="clip3"><rect x="323" y="121" width="29" height="37"/></clipPath></defs><g clip-path="url(#clip0)" transform="translate(-322 -121)"><g clip-path="url(#clip1)"><g clip-path="url(#clip2)"><g clip-path="url(#clip3)"><path d="M10.1947 25.0895 7.79503 27.4894C8.11292 27.6548 8.46841 27.7571 8.85084 27.7571L22.5381 27.7571C22.9204 27.7571 23.2759 27.6548 23.5938 27.4895L21.1939 25.0895 10.1947 25.0895Z" fill="#FFFFFF" transform="matrix(1 0 0 1.01118 323 121.105)"/><path d="M10.447 13.1262 10.447 24.2284 20.9417 24.2284 20.9417 13.1262 10.447 13.1262ZM15.6945 22.9686C13.9156 22.9686 12.4683 21.5213 12.4683 19.7424 12.4683 18.0912 15.0663 14.9009 15.3628 14.5425 15.5263 14.3444 15.8626 14.3444 16.0262 14.5425 16.3226 14.9009 18.9207 18.0912 18.9207 19.7424 18.9207 21.5213 17.4733 22.9686 15.6945 22.9686Z" fill="#FFFFFF" transform="matrix(1 0 0 1.01118 323 121.105)"/><path d="M9.58595 12.874 6.54327 9.83129 6.54327 25.4496C6.54327 26.0262 6.76334 26.5477 7.11424 26.9526L9.58595 24.4807 9.58595 12.874Z" fill="#FFFFFF" transform="matrix(1 0 0 1.01118 323 121.105)"/><path d="M21.8027 24.4807 24.2745 26.9527C24.6255 26.5478 24.8456 26.0263 24.8456 25.4496L24.8456 9.83108 21.8027 12.874 21.8027 24.4807Z" fill="#FFFFFF" transform="matrix(1 0 0 1.01118 323 121.105)"/><path d="M22.5381 4.11211 11.8462 4.11211 10.5538 5.40452C10.5536 5.40473 10.5536 5.40498 10.5534 5.40514L10.249 5.70956 8.80196 4.2625 9.07431 3.99019C9.07443 3.99003 9.10662 3.95787 9.10679 3.95771L9.78294 3.28176 7.80817 1.24286 4.15437 4.89644 6.12915 6.93535 6.8563 6.18127C6.8563 6.18127 6.83774 6.22671 6.83779 6.22667L7.17423 5.89023 8.62129 7.33725 8.31687 7.64167C8.3167 7.64183 8.31641 7.64191 8.31625 7.64208L6.94397 9.01436 10.1947 12.2652 21.1939 12.2652 24.8456 8.6135 24.8456 6.41969C24.8456 5.14721 23.8105 4.11211 22.5381 4.11211ZM20.6076 9.77747 16.3785 9.77747C15.3331 9.77747 14.4828 8.88949 14.4828 7.79806 14.4828 6.70662 15.3331 5.81864 16.3785 5.81864L20.6076 5.81864C21.6531 5.81864 22.5034 6.70662 22.5034 7.79806 22.5034 8.88949 21.6531 9.77747 20.6076 9.77747Z" fill="#FFFFFF" transform="matrix(1 0 0 1.01118 323 121.105)"/><text fill="#FFFFFF" font-family="Arial,Arial_MSFontService,sans-serif" font-weight="700" font-size="5" transform="matrix(0.414286 0 0 0.418918 323 157)">Created by DinosoftLab</text><text fill="#FFFFFF" font-family="Arial,Arial_MSFontService,sans-serif" font-weight="700" font-size="5" transform="matrix(0.414286 0 0 0.418918 323 159)">from the Noun Project</text></g></g></g></g></svg>