<svg width="35" height="33" xmlns="http://www.w3.org/2000/svg" xmlns:xlink="http://www.w3.org/1999/xlink" overflow="hidden"><defs><clipPath id="clip0"><rect x="43" y="246" width="35" height="33"/></clipPath><clipPath id="clip1"><rect x="43" y="247" width="35" height="31"/></clipPath><clipPath id="clip2"><rect x="43" y="247" width="35" height="31"/></clipPath></defs><g clip-path="url(#clip0)" transform="translate(-43 -246)"><g clip-path="url(#clip1)"><g clip-path="url(#clip2)"><g><path d="M30.5321 24.4858C28.1691 27.9084 22.7445 30.121 16.7116 30.121 14.0444 30.121 11.4207 29.6831 9.13121 28.8576 8.78361 28.7306 8.60313 28.3495 8.73013 28.0019 8.85714 27.6543 9.23817 27.4739 9.58577 27.6009 11.7315 28.3763 14.1948 28.784 16.7116 28.784 22.3167 28.784 27.3101 26.7987 29.4291 23.7238 29.6397 23.4196 30.0541 23.3427 30.3583 23.5533 30.6624 23.7672 30.7393 24.1817 30.5321 24.4858ZM23.9878 12.5738C24.1884 13.0852 24.3388 13.6066 24.4323 14.138 24.4791 14.402 24.5059 14.6627 24.5259 14.9268 26.1102 16.0431 27.0728 17.5004 27.0728 19.0913 27.0728 21.7919 24.1315 24.2753 19.9202 25.1275 19.5592 25.1977 19.3253 25.552 19.3988 25.913 19.4723 26.274 19.8233 26.5113 20.1876 26.4377 25.1042 25.4417 28.4097 22.4905 28.4097 19.0913 28.4097 17.8012 27.9217 16.5846 27.0594 15.515 29.1484 16.9255 30.4151 18.7571 30.4151 20.7625 30.4151 21.1301 30.7159 21.4309 31.0836 21.4309 31.4512 21.4309 31.752 21.1301 31.752 20.7625 31.752 17.243 28.6136 14.1714 23.9878 12.5738ZM16.7116 26.7787C17.0792 26.7787 17.3801 26.4778 17.3801 26.1102 17.3801 25.7425 17.0792 25.4417 16.7116 25.4417 10.9996 25.4417 6.3504 22.5941 6.3504 19.0913 6.3504 17.5004 7.31299 16.0431 8.89725 14.9268 8.9173 14.6627 8.94404 14.402 8.99084 14.138 9.08442 13.6066 9.23482 13.0852 9.43536 12.5738 4.8096 14.1714 1.67116 17.243 1.67116 20.7625 1.67116 23.1389 3.08162 25.3949 5.64183 27.1196 5.75881 27.1964 5.88582 27.2332 6.01617 27.2332 6.23008 27.2332 6.44065 27.1296 6.571 26.9391 6.77822 26.6316 6.69466 26.2171 6.39051 26.0099 4.20798 24.5426 3.00809 22.6776 3.00809 20.7625 3.00809 18.7571 4.27482 16.9222 6.36377 15.515 5.50145 16.5846 5.01348 17.8012 5.01348 19.0913 5.01348 23.3294 10.2609 26.7787 16.7116 26.7787ZM16.3339 22.0894C16.5846 22.1027 16.8386 22.1027 17.0893 22.0894 19.3721 21.9724 21.3741 20.6756 22.4437 18.6134 23.5567 16.4676 23.4564 13.9742 22.1729 11.9454L16.7116 3.30221 11.2502 11.9454C9.96679 13.9742 9.86652 16.4676 10.9795 18.6134 12.0491 20.6756 14.0511 21.9724 16.3339 22.0894Z" fill="#FFFFFF" transform="matrix(1.04718 0 0 1 43 247)"/><text fill="#FFFFFF" font-family="Arial,Arial_MSFontService,sans-serif" font-weight="700" font-size="5" transform="matrix(0.35 0 0 0.334232 43 285)">Created by IconMark</text><text fill="#FFFFFF" font-family="Arial,Arial_MSFontService,sans-serif" font-weight="700" font-size="5" transform="matrix(0.35 0 0 0.334232 43 287)">from the Noun Project</text></g></g></g></g></svg>