<svg width="95.1" height="94.7" viewBox="0 0 95.1 94.7" xmlns="http://www.w3.org/2000/svg" xmlns:xlink="http://www.w3.org/1999/xlink" overflow="visible"><defs></defs><g><path d="M57.2 39.3C57.2 38.6 56.7 38.1 56.1 37.9 43 35.2 32.7 24.9 30 11.7 29.9 11 29.3 10.6 28.6 10.6L28.6 10.6C27.9 10.6 27.4 11.1 27.2 11.7 24.5 24.9 14.2 35.2 1.1 37.9 0.5 38 0 38.6 0 39.3 0 40 0.5 40.5 1.1 40.7 14.2 43.4 24.5 53.7 27.2 66.8 27.3 67.5 27.9 67.9 28.6 67.9 29.3 67.9 29.8 67.4 30 66.8 32.7 53.7 43 43.4 56.1 40.7 56.7 40.5 57.2 40 57.2 39.3Z" fill="#FFFFFF"/><path d="M93.9 19.6C84.8 17.4 77.7 10.3 75.5 1.1 75.3 0.5 74.8 0 74.1 0 73.4 0 72.9 0.4 72.7 1.1 70.6 10.3 63.5 17.4 54.4 19.6 53.8 19.8 53.3 20.3 53.3 21 53.3 21.7 53.7 22.2 54.4 22.4 63.4 24.6 70.6 31.8 72.8 40.8 73 41.4 73.5 41.9 74.2 41.9 74.9 41.9 75.4 41.5 75.6 40.8 77.8 31.8 85 24.6 94 22.4L94 22.4C94.6 22.2 95.1 21.7 95.1 21 95 20.3 94.6 19.7 93.9 19.6Z" fill="#FFFFFF"/><path d="M81.5 72.4C72.4 70.2 65.3 63.1 63.1 53.9 62.9 53.3 62.4 52.8 61.7 52.8 61 52.8 60.5 53.2 60.3 53.9 58.1 63.1 51 70.2 41.9 72.4 41.3 72.6 40.8 73.1 40.8 73.8 40.8 74.5 41.2 75 41.9 75.2 50.9 77.4 58.1 84.6 60.3 93.6 60.5 94.2 61 94.7 61.7 94.7 62.4 94.7 62.9 94.3 63.1 93.6 65.2 84.5 72.5 77.3 81.5 75.1 82.1 74.9 82.6 74.4 82.6 73.7 82.5 73.1 82.1 72.5 81.5 72.4Z" fill="#FFFFFF"/></g></svg>