<svg width="85.19" height="80.4" viewBox="0 0 85.19 80.4" xmlns="http://www.w3.org/2000/svg" xmlns:xlink="http://www.w3.org/1999/xlink" overflow="visible"><defs></defs><g><path d="M38.12 36.3 44.02 30.4C46.6 32.11 49.63 33.02 52.72 33L52.82 33C57.03 32.99 61.06 31.3 64.02 28.3 65.02 27.3 69.92 21.5 70.12 3.1 70.12 2.28 69.8 1.48 69.22 0.9 68.69 0.3 67.92-0.03 67.12 1.22125e-15 48.72 0.3 42.82 5.2 41.82 6.2 36.51 11.51 35.67 19.84 39.82 26.1L33.82 32.1 38.12 36.3ZM46.12 10.4C48.02 8.5 53.72 7.2 59.32 6.6L44.22 21.7C42.32 17.92 43.09 13.35 46.12 10.4Z" fill="#FFFFFF"/><path d="M74.22 46.5 74.22 46.5C69.42 49.7 58.22 55 56.12 56L45.22 56 53.02 52.7C55.82 51.45 57.37 48.4 56.72 45.4 56.03 42.28 53.1 40.17 49.92 40.5L29.32 42.3C27.73 42.42 26.21 42.97 24.92 43.9L1.42 58.2C0.1 59.02-0.38 60.71 0.32 62.1L8.52 78.7C9.04 79.72 10.08 80.38 11.22 80.4 11.7 80.4 12.18 80.3 12.62 80.1L28.62 72.2 56.72 73.2C57.71 73.19 58.68 72.92 59.52 72.4L82.02 58.3C85.32 56.08 86.19 51.6 83.96 48.3 83.79 48.05 83.61 47.82 83.42 47.6 81.07 44.97 77.13 44.5 74.22 46.5Z" fill="#FFFFFF"/></g></svg>