<svg width="59.49" height="64" viewBox="0 0 59.49 64" xmlns="http://www.w3.org/2000/svg" xmlns:xlink="http://www.w3.org/1999/xlink" overflow="visible"><defs></defs><g><g><path d="M26.23 21.5C22.23 21.5 18.93 24.8 18.93 28.8 18.93 32.8 22.23 36.1 26.23 36.1 30.23 36.1 33.53 32.8 33.53 28.8 33.53 24.7 30.23 21.5 26.23 21.5Z" fill="#FFFFFF"/></g><g><path d="M59.43 41.3 54.03 26.8C53.93 12 41.83 0 26.93 0 6.53 0-10.37 24 7.63 44.9 11.33 49.3 15.23 53.8 15.73 63.1 15.73 63.6 16.23 64 16.73 64L39.73 64C40.23 64 40.73 63.6 40.73 63L40.73 54.1 48.53 54.1C49.13 54.1 49.53 53.6 49.53 53.1L49.53 42.7 58.53 42.7C58.83 42.7 59.13 42.5 59.33 42.3 59.53 42 59.53 41.6 59.43 41.3ZM44.13 30.6C44.13 31 43.83 31.4 43.43 31.6L38.83 33C38.63 33.5 38.43 34.1 38.13 34.6L40.33 38.9C40.53 39.3 40.43 39.8 40.13 40.1L37.53 42.7C37.23 43 36.73 43.1 36.33 42.9L32.03 40.7C31.53 41 30.93 41.2 30.43 41.4L28.93 46C28.83 46.4 28.43 46.7 27.93 46.7L24.23 46.7C23.83 46.7 23.43 46.4 23.33 46L21.83 41.4C21.33 41.2 20.73 41 20.23 40.7L15.93 42.9C15.53 43.1 15.03 43 14.83 42.7L12.23 40.1C11.93 39.8 11.83 39.3 12.03 38.9L14.23 34.6C13.93 34.1 13.73 33.5 13.53 33L8.93 31.5C8.53 31.4 8.23 31 8.23 30.5L8.23 26.8C8.23 26.4 8.53 26 8.93 25.8L13.53 24.3C13.73 23.8 13.93 23.2 14.23 22.7L12.03 18.4C11.83 18 11.93 17.6 12.23 17.2L14.83 14.6C15.13 14.3 15.63 14.2 15.93 14.4L20.23 16.6C20.73 16.3 21.33 16.1 21.83 15.9L23.33 11.3C23.43 10.9 23.83 10.6 24.23 10.6L27.93 10.6C28.33 10.6 28.73 10.9 28.93 11.3L30.43 15.9C30.93 16.1 31.53 16.3 32.03 16.6L36.33 14.4C36.73 14.2 37.23 14.3 37.53 14.6L40.13 17.2C40.43 17.5 40.53 18 40.33 18.4L38.13 22.7C38.43 23.2 38.63 23.8 38.83 24.3L43.43 25.8C43.83 25.9 44.13 26.3 44.13 26.8 44.13 26.8 44.13 30.6 44.13 30.6Z" fill="#FFFFFF"/></g></g></svg>