<svg width="81.31" height="90" viewBox="0 0 81.31 90" xmlns="http://www.w3.org/2000/svg" xmlns:xlink="http://www.w3.org/1999/xlink" overflow="visible"><defs></defs><g><path d="M80.77 69.47C79.17 64.8 68.74 61.39 64 59.28 61.68 58.24 59.04 57.61 57.66 56.56L51.31 50.44 54.55 41.58C58.42 40.48 60.15 31.41 57.66 31.18 57.74 30.76 57.81 30.32 57.89 29.88L23.43 29.88C23.51 30.32 23.58 30.76 23.66 31.18 21.17 31.41 22.96 40.5 26.83 41.6L30 50.44 23.65 56.56C22.26 57.61 19.63 58.24 17.31 59.28 12.57 61.39 2.14 64.8 0.54 69.47-0.36 72.12 0.16 74.25 0.04 77.18 0.04 77.19 0.04 77.19 0.04 77.2L8.24 77.2 9.59 74.53C11.94 69.9 16.61 67.03 21.78 67.03 25.99 67.03 29.87 68.93 32.43 72.13L48.87 72.13C51.43 68.93 55.31 67.03 59.52 67.03 64.7 67.03 69.37 69.91 71.71 74.53L73.07 77.2 81.27 77.2C81.27 77.19 81.27 77.18 81.27 77.18L81.27 77.18C81.15 74.25 81.67 72.12 80.77 69.47Z" fill="#FFFFFF"/><path d="M20.7 26.36 60.62 26.36C62.18 26.36 63.44 25.1 63.44 23.54 63.44 21.98 62.18 20.73 60.62 20.73L59.85 20.73C59.85 13.25 55.57 6.77 49.32 3.6L47.73 12.62C47.6 13.34 46.98 13.84 46.28 13.84 46.2 13.84 46.11 13.83 46.02 13.82 45.22 13.68 44.69 12.91 44.83 12.11L46.64 1.81C45.97 0.73 44.76 0 43.38 0L37.93 0C36.55 0 35.34 0.73 34.66 1.82L36.48 12.12C36.62 12.92 36.09 13.68 35.29 13.83 35.2 13.85 35.12 13.85 35.03 13.85 34.33 13.85 33.71 13.35 33.58 12.63L31.99 3.61C25.74 6.78 21.46 13.25 21.46 20.73L20.7 20.73C19.14 20.73 17.89 21.99 17.89 23.54 17.88 25.1 19.14 26.36 20.7 26.36Z" fill="#FFFFFF"/><path d="M60.46 76.51 67.81 76.51C66.28 73.49 63.15 71.41 59.52 71.41 55.9 71.41 52.77 73.49 51.23 76.51L30.08 76.51C28.55 73.49 25.41 71.41 21.79 71.41 18.17 71.41 15.03 73.49 13.5 76.51L20.85 76.51 21.78 78.13 23.27 80.71 21.78 83.29 20.85 84.91 13.5 84.91C15.03 87.93 18.16 90.01 21.79 90.01 25.41 90.01 28.54 87.93 30.08 84.91L51.24 84.91C52.77 87.93 55.91 90.01 59.53 90.01 63.15 90.01 66.28 87.93 67.82 84.91L60.47 84.91 59.54 83.29 58.05 80.71 59.54 78.13 60.46 76.51Z" fill="#FFFFFF"/></g></svg>