<svg width="50" height="50" viewBox="0 0 50 50" xmlns="http://www.w3.org/2000/svg" xmlns:xlink="http://www.w3.org/1999/xlink" overflow="visible"><defs></defs><g><path d="M49 29 48 29 48 20C48 19.45 47.55 19 47 19 46.45 19 46 19.45 46 20L46 25 43 25 43 23C43 22.45 42.55 22 42 22 41.45 22 41 22.45 41 23L41 25 38 25 38 22C38 21.45 37.55 21 37 21 36.45 21 36 21.45 36 22L36 31 33 31 33 29C33 28.45 32.55 28 32 28 31.45 28 31 28.45 31 29L31 31 28 31 28 27C28 26.45 27.55 26 27 26 26.45 26 26 26.45 26 27L26 35 25 35C24.45 35 24 35.45 24 36L24 49C24 49.55 24.45 50 25 50L49 50C49.55 50 50 49.55 50 49L50 30C50 29.45 49.55 29 49 29ZM31 35 28 35 28 33 31 33 31 35ZM36 35 33 35 33 33 36 33 36 35ZM41 29 38 29 38 27 41 27 41 29ZM46 29 43 29 43 27 46 27 46 29Z" fill="#FFFFFF"/><path d="M34 24 34 20C34 19.45 33.55 19 33 19L27 19 27 13 46 13C46.55 13 47 12.55 47 12L47 10C47 9.63 46.79 9.28 46.46 9.11L40.63 6.11C40.49 6.04 40.33 6 40.17 6L14.46 6 10.84 0.45C10.65 0.17 10.34 0 10 0L8 0C7.45 0 7 0.45 7 1L7 6 3.92 6C3.65 6 3.39 6.11 3.2 6.3L0.28 9.3C0.1 9.49 0 9.74 0 10L0 12C0 12.55 0.45 13 1 13L7 13 7 43 5 43C4.45 43 4 43.45 4 44L4 49C4 49.55 4.45 50 5 50L17 50C17.55 50 18 49.55 18 49L18 44C18 43.45 17.55 43 17 43L15 43 15 13 25 13 25 19 19 19C18.45 19 18 19.45 18 20L18 24C18 24.55 18.45 25 19 25L33 25C33.55 25 34 24.55 34 24ZM12.59 13 9 16.59 9 13 12.59 13ZM12.59 25 9 28.59 9 21.41 12.59 25ZM9 2 9.46 2 12.07 6 9 6 9 2ZM9 33.41 12.59 37 9 40.59 9 33.41ZM13 43 9.41 43 13 39.41 13 43ZM13 34.59 9.41 31 13 27.41 13 34.59ZM13 22.59 9.41 19 13 15.41 13 22.59Z" fill="#FFFFFF"/></g></svg>