<svg width="28" height="20.02" viewBox="0 0 28 20.02" xmlns="http://www.w3.org/2000/svg" xmlns:xlink="http://www.w3.org/1999/xlink" overflow="visible"><defs></defs><g><path d="M27 18.02 24 18.02 24 15.02 25 15.02C25.55 15.02 26 14.57 26 14.02 26 13.47 25.55 13.02 25 13.02L24 13.02 24 12.02 25 12.02C25.55 12.02 26 11.57 26 11.02L26 7.02C26 6.47 25.55 6.02 25 6.02L11 6.02C10.45 6.02 10 6.47 10 7.02L10 11.02C10 11.57 10.45 12.02 11 12.02L12 12.02 12 13.02 11 13.02C10.45 13.02 10 13.47 10 14.02 10 14.57 10.45 15.02 11 15.02L12 15.02 12 18.02 7 18.02 7 8.02 8 8.02C8.55 8.02 9 7.57 9 7.02 9 6.91 8.98 6.81 8.94 6.71 10.44 5.09 10.34 2.56 8.71 1.06 7.08-0.44 4.56-0.34 3.06 1.29 1.65 2.82 1.65 5.18 3.06 6.71 3.02 6.81 3 6.92 3 7.02 3 7.57 3.45 8.02 4 8.02L5 8.02 5 18.02 1 18.02C0.45 18.02 0 18.47 0 19.02 0 19.57 0.45 20.02 1 20.02L27 20.02C27.55 20.02 28 19.57 28 19.02 28 18.47 27.55 18.02 27 18.02ZM14 12.02 22 12.02 22 13.02 14 13.02 14 12.02ZM14 15.02 22 15.02 22 18.02 14 18.02 14 15.02Z" fill="#FFFFFF"/></g></svg>