<svg width="29" height="29.31" viewBox="0 0 29 29.31" xmlns="http://www.w3.org/2000/svg" xmlns:xlink="http://www.w3.org/1999/xlink" overflow="visible"><defs></defs><g><path d="M1 20 11.09 20C11.64 20 12.09 19.55 12.09 19 12.09 18.45 11.64 18 11.09 18L10 18 10 15 28 15C28.55 15 29 14.55 29 14L29 8C29 7.45 28.55 7 28 7L24 7 24 5 26 5C26.55 5 27 4.55 27 4 27 3.45 26.55 3 26 3L24 3 24 2 27 2C27.55 2 28 1.55 28 1 28 0.45 27.55 0 27 0L19 0C18.45 0 18 0.45 18 1 18 1.55 18.45 2 19 2L22 2 22 3 20 3C19.45 3 19 3.45 19 4 19 4.55 19.45 5 20 5L22 5 22 7 5.27 7C3.46 7 2 8.47 2 10.27L2 18 1 18C0.45 18 0 18.45 0 19 0 19.55 0.45 20 1 20Z" fill="#FFFFFF"/><path d="M5.62 29.25C5.78 29.33 6.17 29.32 6.28 29.25 8.25 28.76 9.38 27.87 9.65 26.59 10.15 24.19 7.16 21.78 6.56 21.32 6.09 21.01 5.72 21.1 5.34 21.33 4.75 21.79 1.84 24.22 2.35 26.61 2.63 27.87 3.72 28.76 5.62 29.25Z" fill="#FFFFFF"/></g></svg>