<svg width="127" height="100" viewBox="0 0 127 100" xmlns="http://www.w3.org/2000/svg" xmlns:xlink="http://www.w3.org/1999/xlink" overflow="visible"><defs></defs><g><path d="M10 60 90 60 90 30 70 0 30 0 30 40 10 40 10 60ZM50 10 64.6 10 80 33 50 33 50 10Z" fill="#FFFFFF"/><path d="M15 100 87 100C95.3 100 102 93.3 102 85 102 76.7 95.3 70 87 70L15 70C6.7 70 0 76.7 0 85 0 93.3 6.7 100 15 100ZM79 80 89 80 89 90 79 90 79 80ZM56 80 66 80 66 90 56 90 56 80ZM33 80 43 80 43 90 33 90 33 80ZM10 80 20 80 20 90 10 90 10 80Z" fill="#FFFFFF"/><path d="M122 85 122 40 112 40 112 85C112 93.3 118.7 100 127 100L127 90C124.2 90 122 87.8 122 85Z" fill="#FFFFFF"/><rect x="10" y="0" width="10" height="30" fill="#FFFFFF"/></g></svg>