<svg width="99.99" height="99.95" viewBox="0 0 99.99 99.95" xmlns="http://www.w3.org/2000/svg" xmlns:xlink="http://www.w3.org/1999/xlink" overflow="visible"><defs></defs><path d="M46 73.3C31.04 73.42 18.82 61.38 18.7 46.42 18.58 31.46 30.62 19.24 45.58 19.12 60.54 19.01 72.76 31.04 72.88 46 72.88 46.08 72.88 46.15 72.88 46.23 72.88 47.76 72.75 49.29 72.49 50.8L87.69 66.1C87.74 66.02 87.78 65.94 87.81 65.85 88.76 63.24 89.71 60.63 90.65 58.02 90.84 57.42 90.57 56.77 90 56.49 87.74 54.81 85.49 53.12 83.22 51.49 82.55 51.06 82.2 50.27 82.33 49.49 82.43 48.71 82.47 47.91 82.5 47.12 82.5 46.47 82.9 45.88 83.5 45.63 85.93 44.41 88.37 43.19 90.78 41.94 91.18 41.67 91.56 41.35 91.89 41L91.89 40.1C91.6 38.86 91.29 37.63 91.01 36.38 90.73 35.13 90.4 33.58 90.1 32.18 90.06 31.49 89.46 30.96 88.77 31 88.76 31 88.76 31 88.75 31 85.92 30.81 83.1 30.62 80.28 30.46 79.56 30.48 78.9 30.07 78.6 29.41 78.3 28.8 77.97 28.2 77.6 27.61 77.22 27.02 77.22 26.27 77.6 25.68 79.02 23.3 80.42 20.9 81.82 18.51 82.31 17.96 82.27 17.11 81.72 16.62 81.68 16.58 81.63 16.55 81.58 16.51L76.01 10.78C75.64 10.19 74.85 10.01 74.26 10.38 74.2 10.42 74.14 10.46 74.09 10.51 71.68 11.85 69.26 13.19 66.86 14.57 66.23 15 65.4 15 64.77 14.57 64.24 14.23 63.67 13.93 63.11 13.62 62.54 13.29 62.21 12.66 62.26 12 62.18 9.24 62.08 6.48 61.98 3.72 61.98 2.41 61.76 2.21 60.47 1.9L53.23 0.16C53.1 0.12 52.96 0.07 52.84 0L51.94 0C51.62 0.38 51.32 0.79 51.06 1.21 49.79 3.54 48.54 5.87 47.32 8.21 47.08 8.94 46.35 9.4 45.59 9.3 44.89 9.28 44.19 9.31 43.49 9.39 42.82 9.47 42.16 9.14 41.82 8.56 40.23 6.23 38.63 3.9 37.02 1.56 36.43 0.69 36.02 0.56 35.09 0.9L27.67 3.48C27.02 3.56 26.56 4.16 26.64 4.81 26.65 4.86 26.66 4.91 26.67 4.96 26.86 7.52 27.01 10.09 27.28 12.64 27.58 13.77 27.05 14.96 26 15.48 25.43 15.8 24.89 16.18 24.38 16.6 23.81 17.06 23.03 17.14 22.38 16.8L14.67 13.58C13.67 13.18 13.33 13.27 12.67 14.08L8 19.94C7.35 20.75 7.34 21.09 8 21.94 9.63 24.1 11.25 26.28 12.9 28.43 13.39 28.98 13.5 29.77 13.18 30.43 12.71 31.43 12.31 32.48 11.89 33.51 11.68 34.11 11.15 34.53 10.52 34.61 7.76 35.1 5.01 35.61 2.25 36.12 1.25 36.3 0.92 36.58 0.79 37.66 0.56 39.66 0.34 41.61 0.11 43.59 0.08 43.76 0.05 43.92 0 44.08L0 46.14 4.91 47.9C6.2 48.37 7.49 48.9 8.8 49.33 9.46 49.53 9.93 50.11 10 50.8 10.21 52.06 10.45 53.33 10.69 54.59 10.85 55.29 10.59 56.02 10.03 56.47 8 58.35 6 60.26 4 62.16 3.39 62.54 3.2 63.34 3.58 63.95 3.61 64 3.64 64.04 3.67 64.08 4.75 66.19 5.83 68.31 6.91 70.41 7.34 71.26 7.69 71.41 8.6 71.23 11.33 70.61 14.07 70.01 16.8 69.37 17.39 69.2 18.02 69.39 18.42 69.85L21.42 73C21.88 73.44 22.05 74.09 21.87 74.7 21.15 77.47 20.46 80.25 19.77 83.03 19.51 83.63 19.79 84.33 20.39 84.6 20.41 84.61 20.43 84.62 20.45 84.62L26.72 88.19C27.24 88.61 28 88.53 28.42 88.02 28.44 88 28.46 87.97 28.48 87.94 30.48 85.94 32.4 83.94 34.34 81.94 34.8 81.39 35.54 81.16 36.23 81.36 37.55 81.68 38.88 81.98 40.23 82.26 40.9 82.37 41.43 82.86 41.61 83.51 42.45 86.09 43.32 88.66 44.14 91.25 44.28 91.79 44.61 92.25 45.07 92.56L48.26 92.56 51.6 92.17 52.85 92C53.8 91.91 54.13 91.63 54.32 90.7 54.89 87.98 55.47 85.26 56.01 82.54 56.13 81.81 56.65 81.21 57.36 81L58.91 80.44 51.35 72.82C49.59 73.16 47.79 73.32 46 73.3Z" fill="#FFFFFF"/><path d="M98 88.53C94.68 85.16 91.33 81.8 88 78.44L86.85 77.28C83.3 73.7 79.77 70.1 76.22 66.52 72.35 62.63 68.46 58.76 64.6 54.86 62.67 53.01 61.71 50.37 62 47.71 62 47.35 62 46.99 62.07 46.63 62.13 45.57 62.08 44.51 61.94 43.46 60.76 34.59 51.35 28.46 42.84 31.11 41.77 31.44 41.7 31.68 42.49 32.48L48.34 38.35C50.32 40.1 50.5 43.12 48.76 45.1 48.65 45.23 48.53 45.35 48.4 45.46 47.66 46.22 46.9 46.98 46.15 47.74 43.83 50.1 41.03 50.09 38.72 47.74 36.9 45.9 35.07 44.06 33.23 42.24 32.55 41.57 32.34 41.64 32.07 42.54 31.8 43.62 31.68 44.74 31.71 45.85 31.6 51.44 34.61 56.62 39.51 59.3 41.99 60.66 44.79 61.3 47.61 61.15L48.27 61.15C50.65 61.04 52.95 61.97 54.59 63.7 56.95 66.08 59.32 68.44 61.68 70.82L78.62 87.87 88.62 97.87C91.05 100.49 95.14 100.66 97.76 98.23 97.84 98.16 97.92 98.08 98 98 100.62 95.44 100.66 91.25 98.11 88.64 98.07 88.6 98.04 88.57 98 88.53Z" fill="#FFFFFF"/></svg>