<svg viewBox="0 0 24 30" xmlns="http://www.w3.org/2000/svg" xmlns:xlink="http://www.w3.org/1999/xlink" overflow="hidden"><path d="M20.71 19.37C19.033 17.0212 16.4813 15.4463 13.63 15 15.3298 14.3769 16.5331 12.8486 16.74 11.05 16.7718 10.9845 16.7888 10.9128 16.79 10.84L16.79 7.63C16.7821 7.39538 16.7587 7.16154 16.72 6.93 16.7291 6.87706 16.7291 6.82294 16.72 6.77 16.3078 4.48878 14.3182 2.83215 12 2.84 11.4425 2.84521 10.8905 2.9502 10.37 3.15L10.37 3.15C10.3372 3.14195 10.3028 3.14195 10.27 3.15 8.45646 3.87767 7.26845 5.63592 7.27 7.59L7.27 10.7C7.26044 10.7529 7.26044 10.8071 7.27 10.86 7.4055 12.7272 8.61641 14.3444 10.37 15 7.52355 15.4388 4.97262 17.0026 3.29 19.34 3.12808 19.5499 3.16698 19.8513 3.37688 20.0132 3.38442 20.0191 3.39213 20.0246 3.4 20.03 3.60436 20.2072 3.91155 20.1941 4.1 20 7.22753 15.6369 13.2998 14.6354 17.6629 17.7629 18.5258 18.3814 19.2815 19.1371 19.9 20 19.9965 20.13 20.1481 20.2077 20.31 20.21 20.4153 20.2108 20.5176 20.1755 20.6 20.11 20.8288 19.9761 20.9056 19.682 20.7717 19.4532 20.7542 19.4234 20.7335 19.3954 20.71 19.37ZM15.61 6.53C15.2839 6.61722 14.9476 6.66093 14.61 6.66 12.9549 6.65667 11.4935 5.57978 11 4 11.3257 3.90952 11.662 3.86245 12 3.86 13.6578 3.8647 15.1201 4.94626 15.61 6.53ZM10.12 4.36C10.2462 4.74716 10.4209 5.11677 10.64 5.46 10.448 5.83051 10.1982 6.16807 9.9 6.46 9.44475 6.93915 8.86732 7.28492 8.23 7.46 8.29185 6.1725 9.00383 5.00471 10.12 4.36ZM8.21 10.54 8.21 8.45C9.11867 8.26921 9.95365 7.82389 10.61 7.17 10.8765 6.89733 11.1113 6.59541 11.31 6.27 12.1958 7.15668 13.3967 7.65646 14.65 7.66 15.0306 7.65412 15.4095 7.60719 15.78 7.52 15.78 7.52 15.78 7.59 15.78 7.63L15.78 10.54C15.78 12.6332 14.0832 14.33 11.99 14.33 9.89684 14.33 8.2 12.6332 8.2 10.54Z" fill="#FFFFFF"/><text fill="#FFFFFF" font-family="Helvetica Neue,Helvetica,Arial-Unicode,Arial,Arial" font-weight="700" font-size="5" x="0" y="39">Created by bambaleq</text><text fill="#FFFFFF" font-family="Helvetica Neue,Helvetica,Arial-Unicode,Arial,Arial" font-weight="700" font-size="5" x="0" y="44">from the Noun Project</text></svg>