<svg width="31" height="30" xmlns="http://www.w3.org/2000/svg" xmlns:xlink="http://www.w3.org/1999/xlink" overflow="hidden"><defs><clipPath id="clip0"><rect x="387" y="328" width="31" height="30"/></clipPath><clipPath id="clip1"><rect x="388" y="329" width="29" height="28"/></clipPath><clipPath id="clip2"><rect x="388" y="329" width="29" height="28"/></clipPath></defs><g clip-path="url(#clip0)" transform="translate(-387 -328)"><g clip-path="url(#clip1)"><g clip-path="url(#clip2)"><g><path d="M20.1922 4.43656C20.1922 5.68342 19.1814 6.69421 17.9345 6.69421 16.6877 6.69421 15.6769 5.68342 15.6769 4.43656 15.6769 3.18969 16.6877 2.17891 17.9345 2.17891 19.1814 2.17891 20.1922 3.18969 20.1922 4.43656Z" fill="#FFFFFF" transform="matrix(1.00264 0 0 1 388.002 329)"/><path d="M11.7161 17.3583C11.7824 17.3673 11.8491 17.3718 11.916 17.3718L13.5213 17.3718C14.7633 15.3201 17.1026 14.1988 19.4799 14.5156L19.4799 14.5156C19.7196 14.5473 19.957 14.5937 20.191 14.6547L20.191 9.96125 22.2972 11.4874 22.2972 11.4874 20.8019 14.8481C20.8754 14.8758 20.9484 14.9051 21.021 14.9357 21.4844 15.1315 21.9213 15.385 22.3212 15.6901L24.2329 11.393 24.2329 11.393 24.2512 11.3689C24.5047 11.0195 24.427 10.5308 24.0775 10.2773 24.0774 10.2772 24.0774 10.2772 24.0773 10.2772L19.6374 7.05515C19.5416 6.98552 19.4312 6.93866 19.3145 6.91814L19.3145 6.91814C19.1679 6.86469 19.0131 6.83738 18.857 6.83748L17.0138 6.83748C16.2756 6.83748 15.6771 7.43591 15.6771 8.1741L15.6771 14.2933 11.916 14.2933C11.535 14.2927 11.1683 14.4381 10.8912 14.6995 10.8024 14.7683 10.7228 14.8482 10.6542 14.9372L4.62052 22.7653 7.54853 22.7653Z" fill="#FFFFFF" transform="matrix(1.00264 0 0 1 388.002 329)"/><path d="M13.209 23.0058 3.76114 23.0058C3.73988 23.0058 3.71864 23.0073 3.69757 23.0101L3.67687 23.0133 3.66049 23.0164C3.64966 23.0186 3.63906 23.0212 3.62847 23.0244L3.61282 23.0292C3.58958 23.0366 3.56697 23.0457 3.54515 23.0566L3.52396 23.0679 3.51 23.0761C3.50326 23.08 3.49675 23.0843 3.49025 23.0886 3.47749 23.0973 3.46497 23.1067 3.45317 23.1166 3.44137 23.1264 3.42909 23.1368 3.41874 23.1479 3.32774 23.2385 3.27667 23.3617 3.27691 23.49L3.27691 24.1847C3.27691 24.452 3.4936 24.6687 3.7609 24.6687 3.76097 24.6687 3.76107 24.6687 3.76114 24.6687L14.3492 24.6687C13.8779 24.183 13.4924 23.6208 13.2093 23.0061L13.209 23.0058Z" fill="#FFFFFF" transform="matrix(1.00264 0 0 1 388.002 329)"/><path d="M22.2208 15.9162C21.761 15.5584 21.2495 15.2724 20.7039 15.0679 20.5369 15.0053 20.3664 14.9504 20.1924 14.9032 20.0749 14.8711 19.9559 14.843 19.8353 14.8187 16.7058 14.181 13.6517 16.2011 13.014 19.3306 12.7789 20.4845 12.9016 21.6826 13.3658 22.7648 13.4006 22.846 13.4373 22.9263 13.4758 23.0056L13.4758 23.0056C13.7786 23.6279 14.1903 24.191 14.6916 24.6682 14.7787 24.7513 14.8684 24.8315 14.9605 24.909 16.0007 25.7853 17.3176 26.2647 18.6776 26.2627 21.8698 26.2627 24.4566 23.675 24.4566 20.4838 24.4587 18.6972 23.6331 17.0104 22.2208 15.9162ZM18.6774 23.6567C16.9248 23.6567 15.504 22.2359 15.504 20.4833 15.504 18.7307 16.9248 17.3099 18.6774 17.3099 18.8 17.3099 18.9225 17.317 19.0443 17.3309L19.0443 17.3309C20.7852 17.5342 22.0317 19.1103 21.8283 20.8512 21.6415 22.4503 20.2871 23.6562 18.6771 23.6567Z" fill="#FFFFFF" transform="matrix(1.00264 0 0 1 388.002 329)"/><text fill="#FFFFFF" font-family="Arial,Arial_MSFontService,sans-serif" font-weight="700" font-size="5" transform="matrix(0.0241425 0 0 0.024079 388.002 358)">Created by Icon Factory</text><text fill="#FFFFFF" font-family="Arial,Arial_MSFontService,sans-serif" font-weight="700" font-size="5" transform="matrix(0.0241425 0 0 0.024079 388.002 358)">from the Noun Project</text></g></g></g></g></svg>