<svg width="33" height="33" xmlns="http://www.w3.org/2000/svg" xmlns:xlink="http://www.w3.org/1999/xlink" overflow="hidden"><defs><clipPath id="clip0"><rect x="464" y="322" width="33" height="33"/></clipPath><clipPath id="clip1"><rect x="465" y="322" width="32" height="32"/></clipPath><clipPath id="clip2"><rect x="465" y="322" width="32" height="32"/></clipPath><clipPath id="clip3"><rect x="465" y="322" width="32" height="41"/></clipPath></defs><g clip-path="url(#clip0)" transform="translate(-464 -322)"><g clip-path="url(#clip1)"><g clip-path="url(#clip2)"><g clip-path="url(#clip3)"><path d="M20.6545 12.6732C20.6545 12.5281 20.5094 12.383 20.4126 12.383L18.3327 12.383 18.3327 14.5113C18.3327 14.7048 18.2359 14.8499 18.0908 14.9467 17.9457 15.0434 17.7522 15.0434 17.6071 14.9467L16.5913 14.3662 15.5271 14.9951C15.4304 15.0434 15.382 15.0434 15.2853 15.0434 15.1885 15.0434 15.1402 15.0434 15.0434 14.9951 14.8983 14.8983 14.8016 14.7532 14.8016 14.5597L14.8016 12.4314 12.7216 12.4314C12.5765 12.4314 12.4798 12.5765 12.4798 12.7216L12.4798 18.768 20.6545 18.768 20.6545 12.6732ZM11.5123 12.7216C11.5123 12.5765 11.3672 12.4314 11.2221 12.4314L9.19052 12.4314 9.19052 14.5597C9.19052 14.7532 9.09377 14.8983 8.94866 14.9951 8.80355 15.0918 8.61006 15.0918 8.46495 14.9951L7.44916 14.4146 6.43336 14.9951C6.33662 15.0434 6.28825 15.0434 6.19151 15.0434 6.09476 15.0434 6.04639 15.0434 5.94965 14.9951 5.80454 14.8983 5.70779 14.7532 5.70779 14.5597L5.70779 12.4314 3.62784 12.4314C3.48272 12.4314 3.38598 12.5765 3.38598 12.7216L3.38598 16.7848 8.75518 16.7848C9.86771 16.7848 10.7868 17.7038 10.7868 18.768L11.5607 18.768 11.5123 12.7216ZM16.1076 4.06318C16.1076 3.91806 16.0108 3.77295 15.8657 3.77295L13.7858 3.77295 13.7858 5.90128C13.7858 6.09476 13.689 6.23988 13.5439 6.33662 13.3988 6.43336 13.2053 6.43336 13.0602 6.33662L12.0444 5.75617 11.0286 6.33662C10.9802 6.38499 10.8835 6.38499 10.7868 6.38499 10.69 6.38499 10.6417 6.38499 10.5449 6.33662 10.3998 6.23988 10.3031 6.09476 10.3031 5.90128L10.3031 3.82132 8.22309 3.82132C8.07798 3.82132 7.98124 3.96643 7.98124 4.11155L7.98124 11.1254C7.98124 11.2705 8.12635 11.4156 8.27147 11.4156L15.9141 11.4156C16.0592 11.4156 16.2043 11.2705 16.2043 11.1254L16.1076 4.06318ZM11.2221 3.82132 11.2221 5.12734 11.7542 4.78874C11.8993 4.692 12.0928 4.692 12.2379 4.78874L12.77 5.07897 12.77 3.82132 11.2221 3.82132ZM6.67522 12.4314 6.67522 13.7374 7.2073 13.3988C7.35241 13.3021 7.5459 13.3021 7.69101 13.3988L8.22309 13.689 8.22309 12.383 6.67522 12.383ZM15.769 12.4314 15.769 13.7374 16.3011 13.3988C16.4462 13.3021 16.6397 13.3021 16.7848 13.3988L17.3169 13.7374 17.3169 12.4314 15.769 12.4314Z" fill="#FFFFFF" transform="matrix(1.00235 0 0 1 465 322.121)"/><path d="M30.1836 16.7364 23.8953 16.7364 23.8953 14.4146C23.8953 14.1727 24.0888 13.9793 24.3307 13.9793L29.7966 13.9793C30.0385 13.9793 30.232 14.1727 30.232 14.4146L30.1836 16.7364Z" fill="#FFFFFF" transform="matrix(1.00235 0 0 1 465 322.121)"/><path d="M29.2645 11.4156 29.2645 13.0602 24.7177 13.0602 24.7177 11.4156C24.7177 11.1737 24.9111 10.9802 25.153 10.9802L28.8776 10.9802C29.1194 10.9802 29.2645 11.1737 29.2645 11.4156Z" fill="#FFFFFF" transform="matrix(1.00235 0 0 1 465 322.121)"/><path d="M3.57946 25.0079 30.9575 25.0079 31.4412 18.8647C31.4896 18.5745 31.3929 18.2843 31.1994 18.0908 31.0059 17.849 30.7157 17.7522 30.4254 17.7522L23.2665 17.7522C22.6861 17.7522 22.2507 18.2359 22.2507 18.768L22.2507 19.3485C22.2507 19.5903 22.0572 19.7838 21.8154 19.7838L10.7868 19.7838C10.2547 19.7838 9.81934 19.3485 9.81934 18.8164 9.81934 18.2359 9.33563 17.8006 8.75518 17.8006L1.54788 17.8006C1.16091 17.8006 0.822309 17.9941 0.628825 18.2843 0.43534 18.6229 0.43534 18.9615 0.580454 19.3001L3.57946 25.0079Z" fill="#FFFFFF" transform="matrix(1.00235 0 0 1 465 322.121)"/><path d="M4.06318 25.9753 5.0306 27.8618C5.12734 28.0069 5.27245 28.1036 5.46594 28.1036L30.232 28.1036C30.4738 28.1036 30.7157 27.9101 30.7157 27.6683L30.8608 25.9753 4.06318 25.9753Z" fill="#FFFFFF" transform="matrix(1.00235 0 0 1 465 322.121)"/><text fill="#FFFFFF" font-family="Arial,Arial_MSFontService,sans-serif" font-weight="700" font-size="5" transform="matrix(0.484848 0 0 0.483711 465 361)">Created by Vectors Point</text><text fill="#FFFFFF" font-family="Arial,Arial_MSFontService,sans-serif" font-weight="700" font-size="5" transform="matrix(0.484848 0 0 0.483711 465 364)">from the Noun Project</text></g></g></g></g></svg>