<svg width="33" height="34" xmlns="http://www.w3.org/2000/svg" xmlns:xlink="http://www.w3.org/1999/xlink" overflow="hidden"><defs><clipPath id="clip0"><rect x="465" y="147" width="33" height="34"/></clipPath><clipPath id="clip1"><rect x="465" y="148" width="32" height="32"/></clipPath><clipPath id="clip2"><rect x="465" y="148" width="32" height="32"/></clipPath></defs><g clip-path="url(#clip0)" transform="translate(-465 -147)"><g clip-path="url(#clip1)"><g clip-path="url(#clip2)"><g><path d="M3.86824 1.82902C3.52941 1.33647 3.84627 0.627451 4.39216 0.627451L11.1247 0.627451C11.5411 0.632747 11.9278 0.844307 12.1569 1.19216L14.3247 4.32941 9.96392 10.6667ZM15.6863 30.7451C10.8348 30.7451 6.90196 26.8122 6.90196 21.9608 6.90196 17.1093 10.8348 13.1765 15.6863 13.1765 20.5377 13.1765 24.4706 17.1093 24.4706 21.9608 24.4706 26.8122 20.5377 30.7451 15.6863 30.7451ZM15.6863 24.6212 17.5059 25.578C17.8181 25.7284 18.1931 25.5973 18.3435 25.2851 18.3968 25.1744 18.4165 25.0504 18.4 24.9286L18.0518 22.902 19.5263 21.4651C19.7657 21.2146 19.7567 20.8174 19.5062 20.578 19.4173 20.493 19.3053 20.436 19.1843 20.4141L17.1482 20.1192 16.2384 18.2745C16.0739 17.9696 15.6932 17.8558 15.3883 18.0204 15.2806 18.0785 15.1923 18.1668 15.1341 18.2745L14.2243 20.1192 12.1882 20.4141C11.8472 20.4758 11.6208 20.8022 11.6824 21.1432 11.7043 21.2642 11.7613 21.3762 11.8463 21.4651L13.3208 22.902 12.9725 24.9286C12.9261 25.272 13.1668 25.5881 13.5102 25.6345 13.632 25.651 13.756 25.6314 13.8667 25.578ZM15.6863 10.9647C17.341 10.9628 18.9746 11.3361 20.4643 12.0565L27.5043 1.82902C27.8431 1.33647 27.5263 0.627451 26.9804 0.627451L20.2478 0.627451C19.8314 0.632747 19.4447 0.844307 19.2157 1.19216L12.069 11.5765C13.2318 11.1707 14.4547 10.9639 15.6863 10.9647Z" fill="#FFFFFF" transform="matrix(1.02 0 0 1 465 148)"/><text fill="#FFFFFF" font-family="Arial,Arial_MSFontService,sans-serif" font-weight="700" font-size="5" transform="matrix(0.32 0 0 0.313726 465 184)">Created by Gregor Cresnar</text><text fill="#FFFFFF" font-family="Arial,Arial_MSFontService,sans-serif" font-weight="700" font-size="5" transform="matrix(0.32 0 0 0.313726 465 186)">from the Noun Project</text></g></g></g></g></svg>