<svg width="31" height="35" xmlns="http://www.w3.org/2000/svg" xmlns:xlink="http://www.w3.org/1999/xlink" overflow="hidden"><defs><clipPath id="clip0"><rect x="747" y="148" width="31" height="35"/></clipPath><clipPath id="clip1"><rect x="748" y="149" width="29" height="33"/></clipPath><clipPath id="clip2"><rect x="748" y="149" width="29" height="33"/></clipPath><clipPath id="clip3"><rect x="748" y="149" width="29" height="40"/></clipPath></defs><g clip-path="url(#clip0)" transform="translate(-747 -148)"><g clip-path="url(#clip1)"><g clip-path="url(#clip2)"><g clip-path="url(#clip3)"><path d="M213.847 51.2826 213.847 51.2826C212.618 54.9943 210.655 57.3957 208.291 57.3957 205.927 57.3957 203.963 54.9943 202.734 51.2826 198.905 52.0745 195.844 51.5742 194.662 49.5269 193.479 47.4796 194.577 44.5782 197.177 41.6581 194.577 38.738 193.479 35.8367 194.662 33.7894 195.844 31.742 198.905 31.2419 202.734 32.0335 203.963 28.3218 205.927 25.9206 208.291 25.9206 210.655 25.9206 212.618 28.3218 213.847 32.0335 217.676 31.2419 220.738 31.742 221.92 33.7894 223.102 35.8367 222.004 38.738 219.404 41.6581 222.004 44.5782 223.102 47.4796 221.92 49.5269 220.738 51.5742 217.676 52.0745 213.847 51.2826ZM214.358 49.4926C217.35 50.1018 219.615 49.8157 220.316 48.6012 221.018 47.3866 220.133 45.2825 218.109 42.9955 217.2 43.8643 216.168 44.7232 215.032 45.5502 214.884 46.9473 214.656 48.2711 214.358 49.4926L214.358 49.4926ZM202.223 33.8236C199.231 33.2146 196.966 33.5005 196.265 34.7151 195.564 35.9297 196.448 38.0338 198.472 40.3207 199.381 39.452 200.414 38.593 201.549 37.7661 201.698 36.3691 201.925 35.0453 202.223 33.8236L202.223 33.8236ZM202.223 49.4926 202.223 49.4926C201.925 48.2711 201.698 46.9473 201.549 45.5502 200.414 44.7232 199.381 43.8643 198.472 42.9955 196.448 45.2825 195.564 47.3866 196.265 48.6012 196.966 49.8157 199.231 50.1018 202.223 49.4926ZM218.109 40.3207C220.133 38.0338 221.018 35.9297 220.316 34.7151 219.615 33.5005 217.35 33.2146 214.358 33.8236 214.656 35.0453 214.884 36.3691 215.032 37.7661 216.168 38.593 217.2 39.452 218.109 40.3207L218.109 40.3207ZM204.54 50.8299C205.508 53.726 206.888 55.5442 208.291 55.5442 209.693 55.5442 211.073 53.726 212.042 50.8299 210.835 50.4772 209.575 50.0124 208.291 49.4422 207.007 50.0124 205.746 50.4772 204.54 50.8299L204.54 50.8299ZM212.042 32.4862C211.073 29.5903 209.693 27.7721 208.291 27.7721 206.888 27.7721 205.508 29.5903 204.54 32.4862 205.746 32.8392 207.007 33.304 208.291 33.8739 209.575 33.304 210.835 32.8392 212.042 32.4862L212.042 32.4862ZM212.973 46.9422 212.973 46.9422C212.578 47.1899 212.175 47.4329 211.762 47.6708 211.35 47.9092 210.937 48.1369 210.525 48.3549 211.22 48.6197 211.898 48.8488 212.553 49.0409 212.714 48.3776 212.855 47.6759 212.973 46.9422ZM203.608 36.3742 203.608 36.3742C204.003 36.1265 204.407 35.8833 204.819 35.6453 205.232 35.4073 205.644 35.1792 206.056 34.9613 205.361 34.6965 204.683 34.4677 204.028 34.2752 203.868 34.9387 203.726 35.6404 203.608 36.3742ZM206.056 48.3549 206.056 48.3549C205.644 48.1369 205.232 47.9092 204.819 47.6708 204.407 47.4329 204.003 47.1899 203.608 46.9422 203.726 47.6759 203.868 48.3776 204.028 49.0409 204.683 48.8488 205.361 48.6197 206.056 48.3549ZM210.525 34.9613 210.525 34.9613C210.937 35.1792 211.35 35.4073 211.762 35.6453 212.175 35.8833 212.578 36.1265 212.973 36.3742 212.855 35.6404 212.714 34.9387 212.553 34.2752 211.898 34.4677 211.22 34.6965 210.525 34.9613ZM203.317 44.5298C204.08 45.0591 204.891 45.5747 205.745 46.0676 206.598 46.5604 207.451 47.0052 208.291 47.4014 209.131 47.0052 209.983 46.5604 210.836 46.0676 211.69 45.5747 212.501 45.0591 213.265 44.5298 213.341 43.6042 213.382 42.6437 213.382 41.6581 213.382 40.6725 213.341 39.7121 213.265 38.7865 212.501 38.2572 211.69 37.7415 210.836 37.2487 209.983 36.7559 209.131 36.3112 208.291 35.9149 207.451 36.3112 206.598 36.7559 205.745 37.2487 204.891 37.7415 204.08 38.2572 203.317 38.7865 203.24 39.7121 203.199 40.6725 203.199 41.6581 203.199 42.6437 203.24 43.6042 203.317 44.5298L203.317 44.5298ZM201.374 43.0711 201.374 43.0711C201.356 42.6054 201.348 42.1341 201.348 41.6581 201.348 41.1821 201.356 40.7108 201.374 40.2452 200.797 40.7142 200.26 41.1871 199.766 41.6581 200.26 42.1292 200.797 42.6021 201.374 43.0711ZM215.208 40.2452 215.208 40.2452C215.225 40.7108 215.234 41.1821 215.234 41.6581 215.234 42.1341 215.225 42.6054 215.208 43.0711 215.785 42.6021 216.321 42.1292 216.816 41.6581 216.321 41.1871 215.785 40.7142 215.208 40.2452ZM208.291 43.5096C207.268 43.5096 206.439 42.6807 206.439 41.6581 206.439 40.6356 207.268 39.8067 208.291 39.8067 209.313 39.8067 210.142 40.6356 210.142 41.6581 210.142 42.6807 209.313 43.5096 208.291 43.5096Z" fill="#FFFFFF" fill-rule="evenodd" transform="matrix(1.01053 0 0 1 552.016 123.079)"/><text fill="#FFFFFF" font-family="Arial,Arial_MSFontService,sans-serif" font-weight="700" font-size="5" transform="matrix(0.467742 0 0 0.462868 748 187)">Created by Andrejs Kirma</text><text fill="#FFFFFF" font-family="Arial,Arial_MSFontService,sans-serif" font-weight="700" font-size="5" transform="matrix(0.467742 0 0 0.462868 748 190)">from the Noun Project</text></g></g></g></g></svg>