<svg width="41" height="29" xmlns="http://www.w3.org/2000/svg" xmlns:xlink="http://www.w3.org/1999/xlink" overflow="hidden"><defs><clipPath id="clip0"><rect x="179" y="152" width="41" height="29"/></clipPath><clipPath id="clip1"><rect x="180" y="152" width="39" height="28"/></clipPath><clipPath id="clip2"><rect x="180" y="152" width="39" height="28"/></clipPath></defs><g clip-path="url(#clip0)" transform="translate(-179 -152)"><g clip-path="url(#clip1)"><g clip-path="url(#clip2)"><g><path d="M22.0038 10.2765C22.0038 11.6421 20.8968 12.7491 19.5312 12.7491 18.1656 12.7491 17.0586 11.6421 17.0586 10.2765 17.0586 8.91092 18.1656 7.8039 19.5312 7.8039 20.8968 7.8039 22.0038 8.91092 22.0038 10.2765Z" fill="#FFFFFF" transform="matrix(1 0 0 1.02564 180 145.094)"/><path d="M21.3291 13.5096 17.7372 13.5096C16.3389 13.5182 15.21 14.6541 15.21 16.0524L15.21 21.2121C15.2098 22.4286 16.0714 23.4749 17.2653 23.7081L17.2653 29.3241C17.263 30.3489 18.0853 31.1851 19.11 31.2L19.9329 31.2C20.9668 31.2 21.8049 30.3619 21.8049 29.328L21.8049 23.7081C22.9988 23.4749 23.8604 22.4286 23.8602 21.2121L23.8602 16.0524C23.8602 14.6526 22.7289 13.516 21.3291 13.5096Z" fill="#FFFFFF" transform="matrix(1 0 0 1.02564 180 145.094)"/><path d="M12.9129 14.2155C12.9129 14.9974 12.2791 15.6312 11.4972 15.6312 10.7153 15.6312 10.0815 14.9974 10.0815 14.2155 10.0815 13.4336 10.7153 12.7998 11.4972 12.7998 12.2791 12.7998 12.9129 13.4336 12.9129 14.2155Z" fill="#FFFFFF" transform="matrix(1 0 0 1.02564 180 145.094)"/><path d="M12.5229 16.068 10.4676 16.068C9.6642 16.068 9.0129 16.7193 9.0129 17.5227L9.0129 20.4789C9.01251 21.1729 9.50235 21.7705 10.1829 21.9063L10.1829 25.1238C10.1829 25.7161 10.6631 26.1963 11.2554 26.1963L11.7273 26.1963C12.3196 26.1963 12.7998 25.7161 12.7998 25.1238L12.7998 21.9102C13.4803 21.7744 13.9702 21.1768 13.9698 20.4828L13.9698 17.5266C13.9719 16.7247 13.3248 16.0723 12.5229 16.068Z" fill="#FFFFFF" transform="matrix(1 0 0 1.02564 180 145.094)"/><path d="M28.8756 14.2155C28.8756 14.9974 28.2418 15.6312 27.4599 15.6312 26.678 15.6312 26.0442 14.9974 26.0442 14.2155 26.0442 13.4336 26.678 12.7998 27.4599 12.7998 28.2418 12.7998 28.8756 13.4336 28.8756 14.2155Z" fill="#FFFFFF" transform="matrix(1 0 0 1.02564 180 145.094)"/><path d="M28.47 16.068 26.4303 16.068C25.6269 16.0594 24.9687 16.7037 24.9601 17.507 24.96 17.5135 24.96 17.5201 24.96 17.5266L24.96 20.4828C24.9596 21.1768 25.4494 21.7744 26.13 21.9102L26.13 25.1277C26.13 25.72 26.6102 26.2002 27.2025 26.2002L27.69 26.2002C28.2823 26.2002 28.7625 25.72 28.7625 25.1277L28.7625 21.9102C29.4431 21.7744 29.9329 21.1768 29.9325 20.4828L29.9325 17.5266C29.9347 16.7232 29.2851 16.0701 28.4817 16.068 28.4778 16.068 28.4739 16.068 28.47 16.068Z" fill="#FFFFFF" transform="matrix(1 0 0 1.02564 180 145.094)"/><path d="M33.7545 15.8925C33.7545 16.4267 33.3215 16.8597 32.7873 16.8597 32.2531 16.8597 31.8201 16.4267 31.8201 15.8925 31.8201 15.3583 32.2531 14.9253 32.7873 14.9253 33.3215 14.9253 33.7545 15.3583 33.7545 15.8925Z" fill="#FFFFFF" transform="matrix(1 0 0 1.02564 180 145.094)"/><path d="M33.4893 17.16 32.0853 17.16C31.5361 17.16 31.0908 17.6053 31.0908 18.1545L31.0908 20.1747C31.0913 20.6499 31.4278 21.0584 31.8942 21.1497L31.8942 23.3493C31.8942 23.7542 32.2225 24.0825 32.6274 24.0825L32.9472 24.0825C33.3521 24.0825 33.6804 23.7542 33.6804 23.3493L33.6804 21.1458C34.1468 21.0545 34.4833 20.646 34.4838 20.1708L34.4838 18.1506C34.4817 17.6029 34.037 17.16 33.4893 17.16Z" fill="#FFFFFF" transform="matrix(1 0 0 1.02564 180 145.094)"/><path d="M7.1799 15.8925C7.1799 16.4267 6.74687 16.8597 6.2127 16.8597 5.67853 16.8597 5.2455 16.4267 5.2455 15.8925 5.2455 15.3583 5.67853 14.9253 6.2127 14.9253 6.74687 14.9253 7.1799 15.3583 7.1799 15.8925Z" fill="#FFFFFF" transform="matrix(1 0 0 1.02564 180 145.094)"/><path d="M6.9147 17.16 5.5107 17.16C4.96146 17.16 4.5162 17.6053 4.5162 18.1545L4.5162 20.1747C4.51667 20.6499 4.85324 21.0584 5.3196 21.1497L5.3196 23.3493C5.3196 23.7542 5.64786 24.0825 6.0528 24.0825L6.3726 24.0825C6.77754 24.0825 7.1058 23.7542 7.1058 23.3493L7.1058 21.1458C7.57216 21.0545 7.90873 20.646 7.9092 20.1708L7.9092 18.1506C7.90705 17.6029 7.46242 17.16 6.9147 17.16Z" fill="#FFFFFF" transform="matrix(1 0 0 1.02564 180 145.094)"/><text fill="#FFFFFF" font-family="Arial,Arial_MSFontService,sans-serif" font-weight="700" font-size="5" transform="matrix(0.39 0 0 0.4 180 191)">Created by Eliricon</text><text fill="#FFFFFF" font-family="Arial,Arial_MSFontService,sans-serif" font-weight="700" font-size="5" transform="matrix(0.39 0 0 0.4 180 193)">from the Noun Project</text></g></g></g></g></svg>