<svg width="38" height="34" xmlns="http://www.w3.org/2000/svg" xmlns:xlink="http://www.w3.org/1999/xlink" overflow="hidden"><defs><clipPath id="clip0"><rect x="743" y="319" width="38" height="34"/></clipPath><clipPath id="clip1"><rect x="744" y="320" width="36" height="32"/></clipPath><clipPath id="clip2"><rect x="744" y="320" width="36" height="32"/></clipPath></defs><g clip-path="url(#clip0)" transform="translate(-743 -319)"><g clip-path="url(#clip1)"><g clip-path="url(#clip2)"><g><path d="M23.6628 24.4692 28.692 21.1824 28.1304 20.4984C27.9204 20.257 27.5656 20.205 27.2952 20.376L22.5792 23.4792C23.0382 23.683 23.4185 24.0305 23.6628 24.4692ZM23.796 19.9764 20.0556 22.4316 21.2184 22.9104 24.93 20.466 24.6312 20.106C24.4225 19.8633 24.0684 19.8084 23.796 19.9764ZM31.7016 21.8664C31.3365 21.4294 30.7021 21.335 30.2256 21.6468L24.03 25.6896C24.008 25.7041 23.9851 25.7174 23.9616 25.7292 23.8976 27.0327 22.789 28.0375 21.4855 27.9735 21.2298 27.9609 20.9779 27.9069 20.7396 27.8136L14.814 25.4772C14.4959 25.363 14.3306 25.0126 14.4447 24.6944 14.5589 24.3763 14.9094 24.211 15.2275 24.3252 15.2398 24.3296 15.252 24.3344 15.264 24.3396L21.1896 26.6724C21.7741 26.8961 22.4294 26.6036 22.6531 26.0191 22.8714 25.4486 22.5983 24.8077 22.0356 24.57L13.2516 20.9592C12.0923 20.4813 10.7649 20.6702 9.7848 21.4524L3.9312 26.1216 7.128 30.0528 8.5644 28.8756C9.6116 28.02 11.0101 27.7284 12.312 28.0944L19.3788 30.0888C20.6464 30.4475 22.0083 30.2133 23.0832 29.4516L31.4892 23.5044C31.9957 23.1452 32.1151 22.4435 31.756 21.937 31.7388 21.9127 31.7206 21.8892 31.7016 21.8664ZM19.26 19.4292C23.2692 19.4282 26.5186 16.1772 26.5176 12.168 26.5166 8.15875 23.2656 4.90939 19.2564 4.9104 15.2486 4.91141 11.9998 8.16016 11.9988 12.168 12.0022 16.1769 15.2511 19.4258 19.26 19.4292ZM16.7112 13.7592C16.923 13.4958 17.3082 13.4538 17.5716 13.6656 17.817 13.8566 18.0797 14.0241 18.3564 14.166 18.6284 14.32 18.9305 14.4134 19.242 14.4396 19.2718 14.4356 19.3019 14.4332 19.332 14.4324 19.3429 14.4318 19.3539 14.433 19.3644 14.436 20.1132 14.4036 20.4984 14.112 20.4984 13.5576 20.4984 13.0032 20.1492 12.8088 19.3572 12.4956 19.2816 12.4632 19.2024 12.4308 19.1268 12.402L18.9792 12.3408C18.1944 12.0168 16.884 11.4804 16.884 10.2096 16.884 9.6984 17.0784 8.5788 18.72 8.3556L18.72 7.5168C18.72 7.1788 18.994 6.9048 19.332 6.9048 19.67 6.9048 19.944 7.1788 19.944 7.5168L19.944 8.388C20.5287 8.54158 21.0762 8.81226 21.5532 9.1836 21.8176 9.39434 21.8611 9.77958 21.6504 10.044 21.4397 10.3084 21.0544 10.3519 20.79 10.1412 20.3707 9.8069 19.8651 9.59843 19.332 9.54 18.108 9.54 18.108 9.9936 18.108 10.2096 18.108 10.6596 18.8784 10.9764 19.4436 11.2068L19.8108 11.358C20.5272 11.6424 21.7224 12.1176 21.7224 13.5576 21.7224 14.6412 21.0564 15.3828 19.944 15.5988L19.944 16.452C19.944 16.79 19.67 17.064 19.332 17.064 18.994 17.064 18.72 16.79 18.72 16.452L18.72 15.5988C18.0236 15.4039 17.3735 15.0709 16.8084 14.6196 16.544 14.4091 16.5003 14.024 16.7109 13.7596 16.711 13.7595 16.7111 13.7593 16.7112 13.7592Z" fill="#FFFFFF" transform="matrix(1 0 0 1.00118 744 320)"/><text fill="#FFFFFF" font-family="Arial,Arial_MSFontService,sans-serif" font-weight="700" font-size="5" transform="matrix(0.36 0 0 0.360426 744 361)">Created by Max Hancock</text><text fill="#FFFFFF" font-family="Arial,Arial_MSFontService,sans-serif" font-weight="700" font-size="5" transform="matrix(0.36 0 0 0.360426 744 363)">from the Noun Project</text></g></g></g></g></svg>