<svg viewBox="0 0 34 42.5" xmlns="http://www.w3.org/2000/svg" xmlns:xlink="http://www.w3.org/1999/xlink" overflow="hidden"><g><path d="M31.5 24 27 24 27 21C27 19.9 26.1 19 25 19L24.9 19 24.1 9.9C24.1 9.4 23.6 9 23.1 9L20.9 9C20.4 9 20 9.4 19.9 9.9L19.1 19 18 19 18 16C18 14.9 17.1 14 16 14L15.9 14 15.1 7.9C15 7.4 14.6 7 14.1 7L11.9 7C11.4 7 11 7.4 10.9 7.9L10.1 14 9 14C7.9 14 7 14.9 7 16L7 24 2.5 24C1.7 24 1 24.7 1 25.5 1 26.3 1.7 27 2.5 27L3 27 3 32C3 32.6 3.4 33 4 33L4 33C4.6 33 5 32.6 5 32L5 27 7 27 7 29C7 30.1 7.9 31 9 31L25 31C26.1 31 27 30.1 27 29L27 27 29 27 29 32C29 32.6 29.4 33 30 33 30.6 33 31 32.6 31 32L31 27 31.5 27C32.3 27 33 26.3 33 25.5 33 24.7 32.3 24 31.5 24ZM13 26C13 26.5 12.5 27 12 27L10 27C9.5 27 9 26.5 9 26L9 25C9 24.5 9.5 24 10 24L12 24C12.5 24 13 24.5 13 25L13 26ZM19 26C19 26.5 18.5 27 18 27L16 27C15.5 27 15 26.5 15 26L15 25C15 24.5 15.5 24 16 24L18 24C18.5 24 19 24.5 19 25L19 26ZM25 26C25 26.5 24.5 27 24 27L22 27C21.5 27 21 26.5 21 26L21 25C21 24.5 21.5 24 22 24L24 24C24.5 24 25 24.5 25 25L25 26Z" fill="#FFFFFF"/><path d="M19 1C19.1 1.7 18.8 2.5 18.2 2.9 17.5 3.4 16.8 3.3 16 3.5 15.3 3.6 14.8 3.5 14.4 3.9 14.1 4.3 14 4.7 14 4.9 14 4.9 14 4.9 14 5L12 5C12 4.3 12.4 3.7 12.5 3.6 13.7 1.9 15.6 2.5 16 2.5 16.8 2.6 17.3 2.8 17.9 2.5 18.5 2.3 18.9 1.7 19 1Z" fill="#FFFFFF"/><path d="M26 6.4C26 6.4 24 6.7 23.9 6.7 23.3 6.8 22.9 7.4 23 8L21 8C21.2 6.3 22.5 5.2 24 5.3 24 5.3 26 5.6 26.1 5.6 27 5.7 27.9 5 28 4 28.2 5.1 27.3 6.2 26 6.4Z" fill="#FFFFFF"/></g><text fill="#FFFFFF" font-family="Helvetica Neue,Helvetica,Arial-Unicode,Arial,Arial" font-weight="700" font-size="5" x="0" y="49">Created by Vectors Market</text><text fill="#FFFFFF" font-family="Helvetica Neue,Helvetica,Arial-Unicode,Arial,Arial" font-weight="700" font-size="5" x="0" y="54">from the Noun Project</text></svg>