<svg width="29" height="30" xmlns="http://www.w3.org/2000/svg" xmlns:xlink="http://www.w3.org/1999/xlink" overflow="hidden"><defs><clipPath id="clip0"><rect x="61" y="197" width="29" height="30"/></clipPath><clipPath id="clip1"><rect x="62" y="198" width="28" height="28"/></clipPath><clipPath id="clip2"><rect x="62" y="198" width="28" height="28"/></clipPath><clipPath id="clip3"><rect x="62" y="198" width="28" height="35"/></clipPath></defs><g clip-path="url(#clip0)" transform="translate(-61 -197)"><g clip-path="url(#clip1)"><g clip-path="url(#clip2)"><g clip-path="url(#clip3)"><path d="M13.6601 6.0797 13.6216 6.00274 11.3129 3.88639C11.1589 3.73247 10.8896 3.84791 10.8511 4.07878L10.7741 7.19559 10.8126 7.27255C11.6976 6.73384 12.6596 6.31057 13.6601 6.0797Z" fill="#FFFFFF" transform="matrix(1.01065 0 0 1 62 198)"/><path d="M20.8941 7.23407 20.9326 7.15711 20.7787 4.00182C20.7787 3.77095 20.5094 3.65551 20.317 3.80943L18.0082 5.96426 17.9697 6.04122C19.0471 6.27209 20.0091 6.69536 20.8941 7.23407Z" fill="#FFFFFF" transform="matrix(1.01065 0 0 1 62 198)"/><path d="M23.934 10.2354C24.4727 11.1205 24.896 12.0824 25.1268 13.0829L25.2038 13.0444 27.3202 10.7357C27.4741 10.5817 27.3586 10.3124 27.1278 10.2739L23.9725 10.197 23.934 10.2354Z" fill="#FFFFFF" transform="matrix(1.01065 0 0 1 62 198)"/><path d="M25.2038 17.431C24.9729 18.47 24.5881 19.4319 24.0494 20.317L24.1264 20.3554 27.2817 20.2015C27.5125 20.2015 27.628 19.9322 27.4741 19.7398L25.3192 17.431 25.2038 17.431Z" fill="#FFFFFF" transform="matrix(1.01065 0 0 1 62 198)"/><path d="M18.1236 24.5881 18.1621 24.6651 20.4709 26.7814C20.6248 26.9354 20.8941 26.8199 20.9326 26.589L21.0096 23.4338 20.9711 23.3568C20.1246 23.934 19.1626 24.3573 18.1236 24.5881Z" fill="#FFFFFF" transform="matrix(1.01065 0 0 1 62 198)"/><path d="M7.84973 20.4324C7.31103 19.5474 6.88776 18.5854 6.65688 17.5849L6.54144 17.6234 4.4251 19.9322C4.27118 20.0861 4.38662 20.3554 4.61749 20.3939L7.77278 20.4709 7.84973 20.4324Z" fill="#FFFFFF" transform="matrix(1.01065 0 0 1 62 198)"/><path d="M10.9281 23.4722 10.8896 23.5492 11.0435 26.7045C11.0435 26.9354 11.3129 27.0508 11.5052 26.8969L13.814 24.7421 13.8525 24.6651C12.7751 24.3957 11.8131 24.011 10.9281 23.4722Z" fill="#FFFFFF" transform="matrix(1.01065 0 0 1 62 198)"/><path d="M16.4306 8.31148C12.5827 8.04213 9.31194 10.8511 8.88867 14.5066 8.85019 14.699 8.73475 14.8914 8.54236 14.9299 8.23452 15.0453 7.92669 15.1223 7.61886 15.0838 7.11863 15.0838 6.6184 14.8529 6.04122 14.5066 5.50251 14.1988 4.9638 13.814 4.65597 13.3522 4.34814 12.8135 4.34814 12.1594 4.4251 11.4283 4.4251 11.3129 4.54053 11.2359 4.65597 11.2359L4.73293 11.2359C6.23361 11.2359 7.46494 10.0046 7.46494 8.50388L7.46494 5.31011C7.46494 5.1562 7.34951 5.00228 7.15711 5.00228L6.54144 5.00228C6.38753 5.00228 6.23361 4.88684 6.23361 4.69445L6.23361 1.46221C6.23361 1.15437 6.00274 0.84654 5.6949 0.769582 5.27163 0.692624 4.92532 1.00046 4.92532 1.42373L4.92532 4.77141C4.92532 4.92532 4.80989 5.07924 4.61749 5.07924L3.03985 5.07924C2.88593 5.07924 2.73202 4.9638 2.73202 4.77141L2.73202 1.46221C2.73202 1.15437 2.50114 0.84654 2.19331 0.769582 1.77004 0.692624 1.42373 1.00046 1.42373 1.42373L1.42373 4.77141C1.42373 4.92532 1.30829 5.07924 1.11589 5.07924L0.500228 5.07924C0.346312 5.07924 0.192395 5.19468 0.192395 5.38707L0.192395 8.58084C0.192395 10.0815 1.42373 11.3129 2.92441 11.3129L2.92441 11.3129C3.03985 11.3129 3.15529 11.4283 3.15529 11.5437 3.07833 12.3518 3.07833 13.2368 3.54008 14.0449 3.96335 14.8144 4.69445 15.2762 5.38707 15.6995 6.04122 16.0843 6.77232 16.4306 7.58038 16.469 7.61886 16.469 7.61886 16.469 7.65734 16.469 7.92669 16.469 8.15757 16.4306 8.38844 16.3921 8.65779 16.3151 8.92715 16.5075 8.96563 16.7769 9.61977 20.0091 12.4672 22.4333 15.8534 22.4333 19.8937 22.4333 23.1259 19.0471 22.8951 14.9299 22.7027 11.4283 19.8937 8.58084 16.4306 8.31148Z" fill="#FFFFFF" transform="matrix(1.01065 0 0 1 62 198)"/><text fill="#FFFFFF" font-family="Arial,Arial_MSFontService,sans-serif" font-weight="700" font-size="5" transform="matrix(0.388889 0 0 0.384791 62 231)">Created by Creative Stall</text><text fill="#FFFFFF" font-family="Arial,Arial_MSFontService,sans-serif" font-weight="700" font-size="5" transform="matrix(0.388889 0 0 0.384791 62 233)">from the Noun Project</text></g></g></g></g></svg>